<?xml version="1.0" encoding="UTF-8" standalone="no"?>
<svg
   width="795.89288"
   height="112.46"
   viewBox="0 0 795.89288 112.46"
   version="1.1"
   id="svg4462"
   sodipodi:docname="snowboard with shoes.svg"
   inkscape:version="1.2.2 (b0a8486541, 2022-12-01)"
   xmlns:inkscape="http://www.inkscape.org/namespaces/inkscape"
   xmlns:sodipodi="http://sodipodi.sourceforge.net/DTD/sodipodi-0.dtd"
   xmlns="http://www.w3.org/2000/svg"
   xmlns:svg="http://www.w3.org/2000/svg"
   xmlns:rdf="http://www.w3.org/1999/02/22-rdf-syntax-ns#"
   xmlns:cc="http://creativecommons.org/ns#"
   xmlns:dc="http://purl.org/dc/elements/1.1/">
  <defs
     id="defs4466">
    <inkscape:path-effect
       effect="fill_between_many"
       method="originald"
       linkedpaths="#path25201,0,1"
       id="path-effect25686" />
  </defs>
  <sodipodi:namedview
     id="namedview4464"
     pagecolor="#ffffff"
     bordercolor="#000000"
     borderopacity="0.25"
     inkscape:showpageshadow="2"
     inkscape:pageopacity="0.0"
     inkscape:pagecheckerboard="false"
     inkscape:deskcolor="#d1d1d1"
     showgrid="false"
     inkscape:zoom="1.1938106"
     inkscape:cx="397.88557"
     inkscape:cy="56.122807"
     inkscape:window-width="1920"
     inkscape:window-height="1155"
     inkscape:window-x="-5"
     inkscape:window-y="-5"
     inkscape:window-maximized="1"
     inkscape:current-layer="svg4462" />
  <title
     id="title2">Produce by Acme CAD Converter</title>
  <desc
     id="desc4">Produce by Acme CAD Converter</desc>
  <metadata
     id="metadata5249">
    <rdf:RDF>
      <cc:Work
         rdf:about="">
        <dc:title>Produce by Acme CAD Converter</dc:title>
      </cc:Work>
    </rdf:RDF>
  </metadata>
  <path
     style="fill:#11c0f3;fill-opacity:1;stroke:#18ce04;stroke-width:0.837782;stroke-opacity:1"
     d=""
     id="path17282" />
  <path
     style="fill:#ae7421;fill-opacity:1;stroke:#18ce04;stroke-width:0.837782;stroke-opacity:1"
     d=""
     id="path18459" />
  <path
     style="opacity:1;fill:#ef860e;fill-opacity:1;fill-rule:evenodd;stroke:#18ce04;stroke-width:0.831526;stroke-opacity:1"
     d=""
     id="path22650" />
  <path
     style="opacity:1;fill:#11c0f3;fill-opacity:1;fill-rule:evenodd;stroke:#18ce04;stroke-width:0.1481;stroke-opacity:1"
     d=""
     id="path24319" />
  <path
     style="opacity:1;fill:#11c0f3;fill-opacity:1;fill-rule:evenodd;stroke:#18ce04;stroke-width:0.1481;stroke-opacity:1"
     d=""
     id="path24337" />
  <path
     style="opacity:1;fill:#11c0f3;fill-opacity:1;fill-rule:evenodd;stroke:#18ce04;stroke-width:0.1481;stroke-opacity:1"
     d=""
     id="path24339" />
  <path
     style="opacity:1;fill:#11c0f3;fill-opacity:1;fill-rule:evenodd;stroke:#18ce04;stroke-width:0.1481;stroke-opacity:1"
     d=""
     id="path24343" />
  <path
     id="path26040"
     style="opacity:1;fill:#f25211;fill-opacity:0.717647;fill-rule:evenodd;stroke:#f25211;stroke-width:0.209445;stroke-opacity:0.71764708"
     d="m 706.25022,111.19842 c -1.78553,-0.0901 -6.35668,-0.31286 -10.15811,-0.4949 -3.80144,-0.18204 -7.31227,-0.3827 -7.80185,-0.44592 l -0.89014,-0.11494 v -1.03439 c 0,-0.56892 0.0763,-1.03439 0.16953,-1.03439 0.0932,0 2.85006,0.13852 6.12628,0.30783 15.13569,0.78219 21.19987,0.9955 24.91157,0.87625 23.50182,-0.75503 49.57875,-8.75106 69.88334,-21.428497 1.25606,-0.784236 2.36102,-1.328473 2.6972,-1.328473 0.55062,0 0.56487,0.02881 0.43033,0.870166 -0.0765,0.478591 -0.18816,0.949481 -0.24808,1.046421 -0.19539,0.316154 -6.6454,4.081309 -10.27093,5.995592 -17.99779,9.502861 -37.08031,15.070131 -57.56989,16.795831 -2.85398,0.24037 -12.42521,0.23451 -17.27925,-0.0106 z m 6.70477,0.38153 c -0.52945,-0.0293 -2.59545,-0.12251 -4.59111,-0.20712 -5.92815,-0.25134 -18.7993,-0.88035 -19.95652,-0.97528 l -1.07372,-0.0881 v -1.18758 -1.18758 l 1.14777,0.0938 c 1.16515,0.0952 20.8871,1.02604 25.36219,1.19706 5.18503,0.19815 13.88438,-0.49599 21.43667,-1.71048 19.40966,-3.12128 39.02162,-10.600335 55.17612,-21.04149 1.28006,-0.827347 1.30746,-0.812055 1.25672,0.701492 l -0.0428,1.276469 -2.29555,1.415767 c -7.41188,4.571219 -16.64245,9.130123 -24.51061,12.105592 -13.83787,5.23301 -27.00592,8.18025 -41.98644,9.3973 -1.99825,0.16234 -8.35441,0.29696 -9.92273,0.21016 z M 0,0 m 282.13113,85.466661 c 0,-1.136731 0.76969,-2.046305 3.25821,-3.850348 2.77858,-2.01433 5.94126,-3.467252 10.29297,-4.72856 1.71056,-0.495791 3.65993,-0.982054 4.33193,-1.080585 1.13434,-0.16632 1.22183,-0.204157 1.22183,-0.528422 0,-0.364171 0.0723,-0.411363 0.82949,-0.541193 0.42249,-0.07245 0.4537,-0.04977 0.39001,0.283385 -0.0817,0.427158 -0.14771,0.420765 1.44631,0.13998 0.69237,-0.12196 1.58318,-0.221837 1.97959,-0.221948 0.68889,-1.94e-4 0.71762,-0.01656 0.64997,-0.370454 -0.0687,-0.359262 -0.0461,-0.370282 0.76026,-0.371303 0.45707,-5.79e-4 1.28089,-0.04354 1.83071,-0.09547 0.99402,-0.09388 0.99968,-0.09231 0.99968,0.277766 0,0.366271 0.0187,0.37218 1.17644,0.37218 0.89428,0 1.19631,-0.05181 1.25933,-0.216028 0.0456,-0.118816 0.0407,-0.284292 -0.0109,-0.367726 -0.0901,-0.145713 0.44152,-0.123774 2.92091,0.120547 0.76539,0.07542 0.82383,0.107493 0.76421,0.419388 -0.0597,0.312175 8.8e-4,0.345139 0.80033,0.435802 0.4757,0.05394 1.21502,0.19055 1.64294,0.303567 l 0.77803,0.205485 0.0939,-0.374314 c 0.0879,-0.350144 0.1373,-0.368372 0.76531,-0.282293 0.77848,0.106702 0.88884,0.178079 0.64788,0.419036 -0.3548,0.354796 -0.15256,0.5333 0.86443,0.762965 0.57183,0.129135 1.97807,0.652866 3.12498,1.163847 1.84006,0.819794 2.25337,1.074026 3.5144,2.161742 0.78601,0.677977 1.47441,1.344429 1.52977,1.481003 0.0554,0.136575 0.10535,0.598204 0.11108,1.025844 0.0102,0.764077 0.003,0.777527 -0.42515,0.777527 -0.23956,0 -0.47601,-0.06544 -0.52543,-0.145413 -0.0494,-0.07998 -0.89586,-0.627352 -1.88095,-1.216389 -2.50614,-1.498549 -5.09225,-2.315656 -9.28283,-2.933008 -2.71684,-0.400243 -3.37952,-0.444401 -6.66903,-0.444401 -6.89267,0 -12.87089,0.922804 -18.66817,2.881641 -3.18502,1.076181 -7.07439,2.978646 -8.38457,4.101263 -1.11966,0.959374 -1.14308,0.974696 -1.65664,1.083849 l -0.48133,0.1023 z m 42.65289,1.260175 v -1.837161 l 0.5769,0.07738 c 0.49359,0.06621 0.59126,0.03209 0.67643,-0.236243 0.071,-0.223652 0.22172,-0.313621 0.52546,-0.313621 0.65704,0 0.88702,0.460489 0.88702,1.776085 v 1.117778 l -1.01523,0.626473 c -0.55838,0.344561 -1.15819,0.626474 -1.33291,0.626474 -0.30775,0 -0.31767,-0.05735 -0.31767,-1.837162 z m -5.62781,2.021247 c 0,-0.519116 1.28632,-3.148879 1.98963,-4.067616 0.57064,-0.745439 1.60571,-1.448081 2.13317,-1.448081 0.52267,0 0.40924,0.721523 -0.27437,1.745236 -0.60055,0.89934 -1.34798,2.550461 -1.63199,3.605183 l -0.15445,0.573594 h -1.03099 c -1.02663,0 -1.031,-0.0017 -1.031,-0.408316 z m 9.07115,4.003689 c -0.26473,-0.03285 -0.48133,-0.14478 -0.48133,-0.248727 0,-0.321107 -0.70779,-0.53274 -1.78171,-0.53274 h -1.02727 l 0.0659,-0.851577 c 0.0362,-0.468367 0.0684,-0.934883 0.0716,-1.036702 0.003,-0.105897 0.19675,-0.185125 0.45211,-0.185125 0.25367,0 1.27587,-0.415642 2.36749,-0.962653 1.05659,-0.529458 2.05532,-0.962652 2.21939,-0.962652 0.28697,0 0.29832,0.09296 0.29832,2.443656 v 2.443655 l -0.85158,-0.0237 c -0.46837,-0.01304 -1.06817,-0.05058 -1.3329,-0.08343 z m -6.07291,-4.150749 c 0.0414,-0.305457 0.18005,-0.805296 0.30815,-1.110753 0.1969,-0.469523 0.30276,-0.555376 0.68476,-0.555376 h 0.45186 v 1.110752 1.110753 h -0.76 -0.76 z m -17.67806,-6.47766 c -0.62076,-0.10453 -1.8405,-0.274418 -2.71054,-0.377529 l -1.5819,-0.187475 0.0447,-0.456234 c 0.0415,-0.422743 0.10452,-0.469587 0.85928,-0.638138 0.44801,-0.100047 1.41436,-0.252586 2.14746,-0.338976 l 1.3329,-0.157072 0.85158,0.911944 c 0.46836,0.501568 0.85157,1.036133 0.85157,1.187922 0,0.323491 -0.17229,0.328823 -1.79509,0.05556 z m 2.20237,-0.88331 c -0.31309,-0.366267 -0.55538,-0.807644 -0.55538,-1.011715 0,-0.318383 0.0828,-0.373347 0.68713,-0.45618 0.87254,-0.119595 2.27488,-0.12222 2.27488,-0.0043 0,0.04946 -0.24992,0.548851 -0.55538,1.109762 -0.69335,1.273205 -1.01831,1.336818 -1.85125,0.362391 z m 5.46826,3.362261 c -0.11471,-0.193164 -1.28443,-4.479921 -1.28443,-4.707147 0,-0.343236 2.46055,-0.276624 5.5123,0.14923 2.97322,0.414894 3.37372,0.497337 3.37372,0.694465 0,0.07709 -0.25683,0.519724 -0.57075,0.983621 -0.31391,0.463898 -0.71704,1.175847 -0.89583,1.582108 -0.62646,1.42344 -0.58996,1.408798 -3.51185,1.408798 -1.40646,0 -2.58689,-0.04998 -2.62316,-0.111075 z m -3.00646,7.2581 -1.20368,-0.0496 0.0313,-2.141758 c 0.0189,-1.293679 -0.0251,-2.141759 -0.11113,-2.141759 -0.18244,0 -0.0195,-1.043482 0.27189,-1.740787 l 0.22019,-0.527001 4.5614,0.103192 c 5.35826,0.121219 4.96898,0.234243 5.95071,-1.727716 0.85046,-1.699631 1.54788,-2.62742 1.96256,-2.610823 0.18248,0.0073 0.86495,0.190578 1.51659,0.407276 1.06729,0.354921 1.18945,0.43439 1.23166,0.801272 0.0422,0.366949 0.001,0.407276 -0.41317,0.407276 -1.54767,0 -3.42627,2.310652 -4.63572,5.701863 -0.30792,0.863365 -0.33647,1.067655 -0.17078,1.221828 0.14347,0.133504 0.92339,0.185125 2.79696,0.185125 h 2.598 v 0.444301 c 0,0.429027 0.43406,1.036703 0.7405,1.036703 0.0815,0 0.1481,0.166612 0.1481,0.37025 v 0.370251 l -7.14584,-0.03014 c -3.93021,-0.01658 -7.68749,-0.05247 -8.34952,-0.07975 z m -20.90029,-0.149241 -6.25724,-0.04028 0.002,-1.294271 c 0.002,-1.477568 0.12455,-2.405023 0.31816,-2.405023 0.0731,0 0.61422,-0.224687 1.20245,-0.499305 0.58823,-0.274617 1.38592,-0.603745 1.77265,-0.731394 0.38672,-0.127649 1.01985,-0.497549 1.40695,-0.822 1.61913,-1.357074 7.9819,-4.167515 9.43516,-4.167515 0.66772,0 6.06257,0.669598 8.8926,1.103732 1.30328,0.199927 2.62751,0.34994 2.94273,0.333363 0.55832,-0.02936 0.57834,-0.01293 0.77528,0.63631 0.11118,0.366548 0.20316,0.683113 0.2044,0.703477 0.001,0.02036 -0.15844,0.03703 -0.35484,0.03703 -0.48308,0 -1.0322,0.68534 -1.26181,1.574827 -0.10232,0.3964 -0.31309,1.148484 -0.46837,1.671296 -0.15529,0.522813 -0.28234,1.121097 -0.28234,1.32952 0,0.208423 -0.11131,0.896973 -0.24737,1.530112 l -0.24737,1.151161 -5.78772,-0.03537 c -3.18324,-0.01946 -8.60347,-0.0535 -12.04495,-0.07566 z M 275.53242,74.420416 c -0.12391,-0.414555 -0.93415,-6.207226 -0.88039,-6.294208 0.0753,-0.121859 5.17905,-0.503101 5.6903,-0.425057 0.19725,0.03011 0.38236,0.126887 0.41134,0.215053 0.029,0.08817 -0.30494,0.609074 -0.74205,1.157571 -0.53044,0.665612 -1.13037,1.728681 -1.80396,3.196588 l -1.00921,2.19932 -0.81088,0.04942 c -0.45667,0.02783 -0.83022,-0.01528 -0.85515,-0.09868 z m -1.29118,-8.478744 c -0.12339,-0.794188 -0.207,-1.462806 -0.1858,-1.485818 0.0212,-0.02301 0.72523,-0.238118 1.56453,-0.478014 1.10562,-0.316018 2.22074,-0.497009 4.0479,-0.657 1.38705,-0.121454 2.54606,-0.196664 2.57559,-0.167134 0.0295,0.02953 -0.25024,0.791153 -0.62172,1.692495 -0.37148,0.901342 -0.67541,1.768745 -0.67541,1.927562 0,0.265079 -0.11235,0.289202 -1.36993,0.294151 -0.75346,0.003 -2.00306,0.07452 -2.77688,0.158998 -0.77383,0.08448 -1.61553,0.15476 -1.87045,0.156172 l -0.46349,0.0026 z m 1.81778,-15.47708 v -4.03633 l 0.57775,-2.616872 0.57775,-2.616871 1.48525,-2.169933 1.48526,-2.169932 2.04678,-1.512669 c 1.12572,-0.831969 2.12366,-1.560004 2.21762,-1.617856 0.16281,-0.100236 5.02581,1.118529 5.21722,1.307538 0.0504,0.04977 0.22949,0.870163 0.39797,1.82309 l 0.30633,1.732593 -0.47039,3.32865 c -0.25872,1.830758 -0.55139,3.804991 -0.65038,4.387185 l -0.17997,1.058534 -0.61861,0.08308 c -0.34023,0.04569 -1.07049,0.127155 -1.62279,0.18103 l -1.00419,0.09795 -3.29072,2.362506 c -1.8099,1.299377 -3.81816,2.824235 -4.46279,3.388571 -0.85973,0.752637 -1.28399,1.026066 -1.59208,1.026066 h -0.42001 z m -1.92531,11.94706 c 0,-0.04768 0.33323,-1.354642 0.7405,-2.904365 0.40728,-1.549724 0.7405,-2.839516 0.7405,-2.866207 0,-0.02669 0.87674,-0.835709 1.94831,-1.797819 1.07157,-0.962111 3.44546,-2.825833 5.27532,-4.141605 l 3.32701,-2.392313 1.32345,-0.104748 c 0.7279,-0.05761 1.3509,-0.0773 1.38445,-0.04375 0.0335,0.03355 -0.13067,1.196805 -0.36494,2.585012 l -0.42593,2.524015 -1.08663,1.911402 c -0.59764,1.051271 -1.63391,2.634786 -2.30282,3.518922 -0.66891,0.884135 -1.32924,1.903524 -1.46741,2.265309 -0.22882,0.599181 -0.28689,0.649954 -0.65164,0.569842 -0.65447,-0.143747 -5.62965,0.350112 -6.74749,0.669786 -1.01688,0.290803 -1.69268,0.373254 -1.69268,0.206519 z m -11.55182,9.964979 c 0,-0.455206 0.26648,-0.696071 0.77012,-0.696071 0.49428,0 0.56832,0.407451 0.14384,0.791598 -0.41165,0.372536 -0.91396,0.320034 -0.91396,-0.09553 z m 3.66548,-2.433061 c -0.49958,-0.05226 -0.55538,-0.10089 -0.55538,-0.48409 0,-0.361904 0.20611,-0.58601 1.36993,-1.489565 1.71631,-1.332492 1.89613,-1.418794 2.46514,-1.183105 0.39167,0.162237 0.4536,0.275182 0.54293,0.990157 0.0555,0.443867 0.0761,0.825753 0.0459,0.848636 -0.37932,0.287269 -2.83671,1.419561 -3.04047,1.400957 -0.14997,-0.01369 -0.52259,-0.05104 -0.82805,-0.08299 z m 5.51674,19.360929 c 0,-0.08146 -0.23326,-0.1481 -0.51835,-0.1481 -0.37305,0 -0.51836,-0.0654 -0.51836,-0.233312 0,-0.171549 0.11921,-0.220809 0.4503,-0.18608 0.28103,0.02948 0.50217,-0.03591 0.58832,-0.173963 0.0987,-0.158218 0.13236,-0.06307 0.11811,0.334179 -0.011,0.305457 -0.0424,0.555377 -0.07,0.555377 -0.0275,0 -0.05,-0.06665 -0.05,-0.148101 z m -4.92434,-4.231519 c -0.224,-0.121523 -0.40728,-0.320454 -0.40728,-0.442068 0,-0.355372 1.01176,-2.270525 1.81511,-3.43582 0.99104,-1.437541 2.50281,-2.850017 3.05037,-2.850017 0.41098,0 0.41201,0.0026 0.66103,1.66845 0.34246,2.29094 0.35166,2.214763 -0.25378,2.101181 -1.0324,-0.193679 -2.366,0.69374 -3.3658,2.23971 -0.64542,0.998004 -0.82551,1.084293 -1.49965,0.718564 z m 0.33323,3.213385 c 0,-0.159835 0.36554,-1.020814 0.81231,-1.913285 1.14768,-2.292606 2.37381,-3.584995 3.40119,-3.584995 0.52502,0 0.50544,0.574797 -0.047,1.380269 -0.54477,0.794285 -1.30144,2.29786 -1.72716,3.432019 l -0.3339,0.889574 -1.05272,0.04351 c -0.96201,0.03976 -1.05271,0.01847 -1.05271,-0.247096 z m -1.48101,-17.864658 c 0,-0.32441 0.0642,-0.370251 0.51835,-0.370251 0.63312,0 0.66664,0.211912 0.0814,0.514548 -0.57335,0.296492 -0.59976,0.29014 -0.59976,-0.144297 z m -9.32968,13.384567 c -0.002,-1.062856 0.14052,-1.291791 0.94241,-1.516502 2.31288,-0.648124 10.01638,-1.567135 10.01638,-1.194932 0,0.235682 -1.2206,2.504026 -1.53762,2.857485 l -0.31364,0.349688 -4.55344,-0.05349 -4.55344,-0.05349 z m 0.59176,-2.631085 c 0,-0.663388 1.55622,-2.893255 3.43342,-4.919683 2.25882,-2.438369 4.77927,-4.383521 7.3477,-5.670561 1.0732,-0.537784 2.10615,-0.97779 2.29543,-0.97779 0.33607,0 0.35703,0.08603 0.8932,3.665483 0.30198,2.016016 0.54793,3.742457 0.54657,3.836536 -0.001,0.09408 -0.31804,0.35598 -0.70371,0.582001 -0.38568,0.226022 -1.16876,0.892005 -1.74018,1.479963 l -1.03895,1.069014 -2.14746,0.165779 c -2.6355,0.203456 -5.06125,0.510992 -7.11039,0.901452 -0.85409,0.162744 -1.60301,0.295899 -1.66426,0.295899 -0.0613,0 -0.11137,-0.192642 -0.11137,-0.428093 z M 307.90059,11.6905 c -10.14117,-1.206711 -18.55935,-2.1980828 -18.70705,-2.2030492 -0.21184,-0.00712 -0.25876,-0.1094886 -0.22215,-0.4846277 0.0579,-0.5930708 1.2949,-1.6740038 3.89701,-3.4052679 3.2852,-2.1857399 6.86299,-3.6839833 10.60399,-4.4405537 2.27249,-0.45958055 7.05634,-0.49499644 9.01152,-0.066714 6.18082,1.3539092 10.53486,4.7583997 13.28468,10.3874885 0.93792,1.919992 1.10622,2.460152 0.75561,2.425199 -0.10182,-0.01015 -8.48244,-1.005764 -18.62361,-2.212475 z m 218.29988,54.43489 c 0,-0.591647 1.30683,-2.887903 2.12742,-3.738126 0.61536,-0.637588 0.84081,-0.777527 1.25265,-0.777527 0.34208,0 0.4789,0.05904 0.42907,0.185126 -0.0402,0.101819 -0.45414,1.134819 -0.91977,2.295555 l -0.84659,2.11043 h -0.4943 c -0.27186,0 -0.53548,0.06665 -0.58582,0.1481 -0.0503,0.08146 -0.28754,0.1481 -0.5271,0.1481 -0.3663,0 -0.43556,-0.0591 -0.43556,-0.371658 z m 1.03671,0.741909 c 0,-0.477212 0.0353,-0.518351 0.4443,-0.518351 0.5248,0 0.55055,0.121181 0.13735,0.646479 -0.41493,0.527496 -0.58165,0.49077 -0.58165,-0.128128 z m -3.11011,24.529117 c 0,-1.781832 0.0384,-3.431844 0.0854,-3.666694 0.0824,-0.412114 0.11754,-0.427893 1.00743,-0.45262 0.50712,-0.01409 0.98863,0.01978 1.07004,0.07526 0.0947,0.06452 0.12577,1.395284 0.0863,3.692314 l -0.0617,3.591433 h -1.09376 -1.09376 z m 54.90039,-4.572597 c -0.17349,-0.309251 -0.2417,-0.925627 -0.10242,-0.925627 0.14658,0 0.44345,0.601334 0.44345,0.898243 0,0.165164 -0.25237,0.185429 -0.34103,0.02738 z m 0.30152,8.294386 -1.29837,-0.0494 0.0395,-3.807782 0.0395,-3.807781 0.42823,-0.04888 c 0.23553,-0.02689 0.47872,0.03281 0.54043,0.132656 0.0622,0.100583 0.22547,0.138073 0.36621,0.08407 0.1904,-0.07306 0.23049,-0.199002 0.1601,-0.502907 -0.0516,-0.222988 -0.13468,-0.655353 -0.18451,-0.96081 -0.0805,-0.493132 -0.056,-0.555376 0.21812,-0.555376 0.4418,0 1.06318,0.310814 1.06318,0.531802 0,0.279919 0.42445,7.097741 0.50857,8.169092 0.0695,0.885043 0.0583,0.924292 -0.25497,0.895173 -0.18021,-0.01675 -0.91192,-0.05268 -1.62602,-0.07985 z m -5.2921,-0.196472 c 0,-0.5887 0.60867,-0.574444 -38.95039,-0.912238 l -4.66516,-0.03983 -0.14619,0.333225 c -0.13874,0.316229 -0.22849,0.333226 -1.75956,0.333226 h -1.61336 l 0.0918,-0.555376 c 0.0505,-0.305457 0.0925,-0.664232 0.0934,-0.797279 8.9e-4,-0.133046 0.13492,-0.276758 0.29783,-0.31936 0.22438,-0.05868 0.2962,-0.202012 0.2962,-0.591162 0,-0.445876 0.0555,-0.524812 0.42062,-0.597829 0.35986,-0.07197 0.49173,-0.251168 0.91282,-1.24034 0.28536,-0.670353 0.69422,-1.342919 0.97296,-1.600517 0.26442,-0.244365 0.58997,-0.620784 0.72343,-0.836486 0.13347,-0.215702 0.92256,-0.887218 1.75355,-1.492256 1.18293,-0.861288 1.99308,-1.302577 3.73239,-2.033018 2.09883,-0.881429 2.31146,-0.939735 3.8506,-1.055882 5.35622,-0.404189 17.40865,-0.284093 23.57947,0.234958 l 2.40112,0.201967 2.11594,0.914333 c 2.45144,1.059309 4.79793,2.6635 5.48537,3.750108 0.22021,0.348074 0.56851,0.722843 0.774,0.83282 0.2055,0.109978 0.37363,0.282453 0.37363,0.383279 0,0.291922 0.88851,2.192425 1.08272,2.315907 0.0969,0.0616 0.32609,0.113013 0.50936,0.11426 0.28014,0.0019 0.33323,0.08292 0.33323,0.508506 0,0.697952 0.13067,0.974765 0.46014,0.974765 0.2947,0 0.36057,0.352068 0.18701,0.999677 -0.0857,0.319686 -0.15479,0.333226 -1.70113,0.333226 -1.04746,0 -1.61183,-0.05556 -1.61183,-0.158679 z m 2.82643,-28.165509 c -0.0705,-0.183274 -1.12747,-2.700724 -2.34872,-5.594333 l -2.22047,-5.261106 -0.90583,-6.531449 c -0.64235,-4.631727 -0.90582,-6.989113 -0.90582,-8.104948 v -1.573499 h 0.43818 c 0.37525,0 0.73045,0.318126 2.47381,2.215662 l 2.03564,2.215662 1.16769,2.486523 1.1677,2.486524 0.18236,4.59111 c 0.20373,5.129009 0.17666,6.146163 -0.16358,6.146163 -0.18959,0 -0.21501,0.290145 -0.17083,1.950038 0.0298,1.121018 0.11486,1.97086 0.2,1.999018 0.0906,0.02997 0.13014,0.681633 0.10184,1.678422 l -0.0463,1.629439 h -0.43873 c -0.31824,0 -0.47394,-0.09151 -0.56697,-0.333226 z m -52.14384,-3.052545 v -1.756667 l 0.35409,0.06769 c 0.29642,0.05666 0.37873,-0.01302 0.50542,-0.427815 0.0832,-0.272525 0.18491,-1.141511 0.22594,-1.931082 0.0641,-1.233658 0.0374,-1.478425 -0.18956,-1.740179 -0.1453,-0.167528 -0.37299,-0.304597 -0.50598,-0.304597 -0.29522,0 -0.30739,0.438634 0.12458,-4.48839 l 0.36106,-4.118138 1.28317,-2.7881 1.28317,-2.788099 2.12228,-2.011227 c 1.61207,-1.527716 2.3724,-2.137184 3.16267,-2.535158 1.30843,-0.658916 1.64018,-0.677554 1.64018,-0.09215 0,0.237481 -0.40024,3.686367 -0.88942,7.664192 l -0.88943,7.232408 -0.91568,2.295555 -0.91567,2.295555 -2.24592,2.295555 c -1.89104,1.932835 -2.35588,2.500316 -2.94186,3.591433 -0.63297,1.178611 -0.73545,1.295878 -1.13249,1.295878 h -0.43655 z m 29.36095,-49.612841 -19.88242,-2.168761 -5e-5,-0.401006 c -9e-5,-0.664228 2.51348,-2.9550476 5.07272,-4.6231832 4.38262,-2.8566204 10.16112,-4.2928062 15.37206,-3.8205655 8.14792,0.7384035 14.60412,4.6532777 19.44911,11.7934397 0.38193,0.56286 0.67062,1.096021 0.64154,1.184803 -0.0291,0.08878 -0.21436,0.171009 -0.41172,0.182728 -0.19736,0.01172 -9.30592,-0.954636 -20.24124,-2.147455 z m 22.0109,73.287806 c -0.11175,-0.163213 -0.95797,-0.85321 -1.88049,-1.533327 -8.48721,-6.257098 -28.22293,-7.493005 -40.18235,-2.516333 -1.921,0.799382 -2.66736,1.200601 -3.88135,2.086475 -0.82665,0.603228 -1.67326,1.258521 -1.88136,1.456207 -0.20844,0.198017 -0.55761,0.359429 -0.77752,0.359429 -0.34573,0 -0.39917,-0.06012 -0.39917,-0.449058 0,-0.789463 0.39416,-1.434518 1.71175,-2.801309 1.0889,-1.129563 1.59919,-1.517371 3.32165,-2.524372 1.72131,-1.006334 2.46636,-1.335056 4.83214,-2.131984 1.53837,-0.518211 3.28662,-1.024296 3.88501,-1.124634 1.03377,-0.173343 1.08456,-0.200269 1.01954,-0.540434 -0.0819,-0.428629 -0.0741,-0.434018 0.81747,-0.563286 0.68383,-0.09915 0.70347,-0.09132 0.70347,0.280152 0,0.318319 0.0557,0.370449 0.33323,0.312109 1.39175,-0.292521 1.99809,-0.379907 2.63607,-0.379907 0.67845,0 0.73321,-0.02698 0.73321,-0.361176 0,-0.414233 0.25735,-0.471113 2.60442,-0.575637 l 1.34557,-0.05992 -0.067,0.350269 c -0.0662,0.346371 -0.0528,0.350268 1.20916,0.350268 1.17738,0 1.27611,-0.02292 1.27611,-0.296201 0,-0.267387 0.0987,-0.2962 1.01498,-0.2962 0.55824,0 1.41379,0.04168 1.90122,0.09263 0.83391,0.08716 0.88227,0.113392 0.81901,0.444301 -0.0625,0.32673 -0.0214,0.351672 0.57946,0.351696 0.35568,1.4e-5 1.16906,0.09998 1.8075,0.22215 1.48964,0.28505 1.57905,0.280855 1.57905,-0.07407 0,-0.310127 0.33811,-0.380211 0.99037,-0.205289 0.2728,0.07316 0.3026,0.142955 0.18879,0.442279 -0.0743,0.195476 -0.11079,0.355411 -0.081,0.355411 0.57693,0 3.49959,0.794629 5.46153,1.484911 2.08894,0.734964 2.92438,1.121028 4.63273,2.140835 1.85304,1.106178 2.2302,1.403215 3.40045,2.678092 l 1.31625,1.433917 0.0601,0.944384 0.0601,0.944383 H 576.738 c -0.27742,0 -0.51957,-0.111118 -0.64668,-0.296752 z M 531.77353,19.067918 c -0.1494,-0.557493 -0.10654,-0.703477 0.20652,-0.703477 0.18562,0 0.3549,0.144742 0.4443,0.379892 0.21274,0.55955 0.18186,0.65681 -0.20854,0.65681 -0.24086,0 -0.38134,-0.105846 -0.44228,-0.333225 z m 38.04249,42.383216 c -0.89601,-0.23536 -3.6951,-0.898495 -6.22021,-1.473635 -2.52511,-0.575141 -4.70774,-1.080791 -4.85029,-1.123669 -0.24385,-0.07335 -0.25917,-0.738372 -0.25917,-11.249554 V 36.432681 h -4.12211 c -2.54683,0 -4.45042,0.06593 -4.9812,0.17253 -1.22267,0.245547 -2.12534,0.898319 -2.62857,1.900875 -0.80786,1.609421 -0.88277,2.527231 -0.96113,11.776152 l -0.0715,8.443893 -1.72622,0.402051 c -0.94942,0.221127 -3.72557,0.869217 -6.16923,1.4402 -2.44366,0.570983 -4.52632,1.038872 -4.62814,1.039753 -0.33341,0.0029 -0.19813,-0.605439 0.77129,-3.468255 1.96359,-5.798783 2.72347,-11.694673 2.54955,-19.781894 -0.12627,-5.871194 -0.49757,-9.07027 -1.72754,-14.884084 -0.75736,-3.579853 -1.18658,-6.276846 -1.18519,-7.447133 10e-4,-0.907479 0.24161,-1.756817 0.52875,-1.867003 0.12518,-0.04803 0.80699,0.01115 1.51513,0.131521 1.9296,0.327991 7.65902,0.983569 19.42984,2.223221 5.82404,0.613364 12.00451,1.28052 13.73437,1.48257 1.72986,0.20205 3.24731,0.367363 3.37211,0.367363 0.29329,0 0.21096,0.339554 -1.14908,4.739211 -1.46535,4.740342 -2.20259,10.702489 -2.20673,17.846089 -0.004,7.635101 0.7164,13.170114 2.39114,18.360943 0.40789,1.264269 0.74163,2.365402 0.74163,2.446963 0,0.217107 -0.33736,0.168956 -2.14746,-0.306513 z m 3.77656,2.528209 c -0.18985,-0.12269 -0.18447,-0.143895 0.037,-0.145833 0.14255,-0.0012 0.25918,0.06438 0.25918,0.145833 0,0.180624 -0.0167,0.180624 -0.2962,0 z m -0.81856,-0.598889 c -0.0968,-0.156553 0.17337,-0.585914 0.36862,-0.585914 0.0584,0 0.18211,0.166613 0.27489,0.370251 0.15464,0.339399 0.13884,0.370251 -0.18964,0.370251 -0.19708,0 -0.40132,-0.06956 -0.45387,-0.154588 z m -0.22241,0.07539 c -0.15665,-0.188748 -0.13461,-0.277634 0.12996,-0.524121 0.17524,-0.163253 0.31861,-0.360874 0.31861,-0.439156 0,-0.07828 0.0594,-0.142331 0.13202,-0.142331 0.11018,0 0.60848,1.033349 0.60848,1.26185 0,0.179858 -1.02153,0.04563 -1.18907,-0.156242 z m -27.69049,35.460561 c -10.26835,-0.129345 -17.57077,-0.365458 -19.3271,-0.624913 -1.17749,-0.173946 -1.18508,-0.177902 -1.23006,-0.640964 l -0.0453,-0.465939 1.89651,-0.110834 c 5.12076,-0.299263 48.09375,0.600644 50.21425,1.051547 0.22986,0.04888 0.33323,0.177815 0.33323,0.415658 0,0.33488 -0.048,0.347564 -1.66613,0.440806 -2.09237,0.120565 -18.18189,0.08571 -30.17544,-0.06536 z m 155.28319,12.223365 c -7.0866,-0.35124 -12.89666,-0.64274 -12.91124,-0.64777 -0.0146,-0.005 -0.0479,-0.61457 -0.074,-1.35453 l -0.0475,-1.34537 1.11076,0.0868 c 0.61091,0.0477 7.00884,0.36442 14.21763,0.70378 12.62866,0.5945 13.24737,0.6107 16.95749,0.44383 24.85056,-1.11766 50.13722,-9.218768 71.10338,-22.779446 1.55602,-1.006417 2.97154,-1.829849 3.14561,-1.829849 0.37249,0 1.41247,1.45272 1.33233,1.861093 -0.0626,0.318747 -4.36183,3.113229 -8.57208,5.571749 -19.90059,11.620693 -42.84038,18.518673 -65.89849,19.815643 -4.00725,0.2254 -6.50985,0.16077 -20.3638,-0.5259 z m -26.65806,-1.26031 c -15.73025,-0.77162 -59.41942,-2.52991 -80.64063,-3.24542 -9.57098,-0.3227 -20.3675,-0.68802 -23.99225,-0.81182 -11.45113,-0.3911 -15.70774,-0.51693 -30.28652,-0.89531 -7.8197,-0.20295 -16.48357,-0.43509 -19.25304,-0.51585 -2.76948,-0.0808 -5.31865,-0.14721 -5.66484,-0.14764 l -0.62943,-7.9e-4 0.002,-1.14777 c 0.001,-0.63128 0.0584,-1.2363 0.12698,-1.3445 0.10309,-0.16261 1.14892,-0.16869 6.03282,-0.035 3.24946,0.0889 13.33905,0.36159 22.4213,0.60594 22.03034,0.5927 64.95852,2.04722 87.37919,2.96064 33.10817,1.34884 34.53075,1.40965 46.77237,1.99928 5.89045,0.28372 10.83885,0.51586 10.99645,0.51586 0.26206,0 0.28651,0.11375 0.28651,1.3329 v 1.33291 l -0.99967,-0.0184 c -0.54983,-0.0101 -6.198,-0.27336 -12.55151,-0.58502 z M 32.878273,96.135775 C 22.866993,92.272409 12.921062,87.104457 3.9668408,81.113258 1.4976552,79.461146 1.0462204,79.102955 1.0418593,78.792434 c -0.00738,-0.525558 0.8828185,-1.77962 1.2635216,-1.779976 0.1683145,-1.57e-4 1.4012497,0.741724 2.7398561,1.648626 8.614275,5.836146 19.125768,11.310805 28.795689,14.997544 l 2.369605,0.903433 -0.04279,1.295878 c -0.04057,1.228622 -0.05979,1.295414 -0.370251,1.286937 -0.180103,-0.0049 -1.49375,-0.459013 -2.919217,-1.009101 z m 42.578845,9.520505 c -8.956684,-0.65512 -18.018555,-2.15892 -26.806159,-4.44843 -3.427814,-0.89307 -8.747631,-2.500777 -11.292651,-3.412752 l -1.073727,-0.384756 v -1.387115 c 0,-0.762914 0.0318,-1.387116 0.07067,-1.387116 0.03887,0 0.51455,0.167076 1.057071,0.371281 2.00169,0.753434 7.636378,2.494996 11.016487,3.404961 8.916377,2.400397 18.328031,3.961117 27.694762,4.592587 l 3.628458,0.24461 26.065661,-0.7541 c 21.22392,-0.61402 56.32361,-1.4842 60.09171,-1.48977 l 0.85157,-0.001 v 1.3108 1.3108 l -4.03573,0.0994 c -2.21966,0.0547 -10.10044,0.23106 -17.51287,0.39201 -7.41242,0.16094 -16.90935,0.39383 -21.10429,0.51752 -28.043879,0.82688 -43.462187,1.25406 -44.63211,1.23656 -0.744175,-0.0111 -2.552657,-0.10798 -4.018851,-0.21522 z m 91.451952,-3.29513 v -1.3269 l 1.81423,-0.086 c 2.56916,-0.12177 14.91761,-0.35648 32.24885,-0.61295 8.18624,-0.12115 19.01516,-0.28607 24.06426,-0.366488 5.04911,-0.08042 17.21185,-0.211198 27.02831,-0.290616 9.81648,-0.07942 20.76386,-0.178882 24.32752,-0.221029 l 6.47939,-0.07663 v 1.313893 1.3139 l -3.14713,0.087 c -1.73092,0.0479 -12.64407,0.15614 -24.25143,0.24059 -11.60736,0.0844 -27.40226,0.25081 -35.09978,0.36972 -7.69751,0.1189 -18.62732,0.28511 -24.28845,0.36935 -11.46605,0.17061 -22.92566,0.39695 -26.69509,0.52725 l -2.48068,0.0858 z m 339.89026,1.73933 c -3.97963,-0.11314 -12.05744,-0.27911 -42.43074,-0.87178 -8.22698,-0.16053 -23.0222,-0.39132 -32.87828,-0.51288 -9.85607,-0.12155 -19.65291,-0.25854 -21.77075,-0.30442 -9.61756,-0.20832 -49.97013,-0.38267 -86.60166,-0.37416 l -40.09817,0.009 v -1.32091 -1.320904 l 28.25014,-0.06489 c 29.63799,-0.06808 67.62805,0.07074 90.89658,0.332135 26.05609,0.292712 47.85893,0.593199 59.09203,0.814399 6.19059,0.1219 16.35398,0.32095 22.5853,0.44232 18.49709,0.36029 25.14206,0.50912 27.13939,0.60784 l 1.88827,0.0933 v -1.226 c 0,-0.674303 0.0416,-1.184467 0.0923,-1.133697 0.0508,0.05077 0.0437,1.194847 -0.0158,2.542387 l -0.10807,2.45008 -0.98392,-0.0232 c -0.54114,-0.0128 -2.81664,-0.0753 -5.05666,-0.13897 z m 22.05055,-5.026482 c -5.63489,-0.268231 -7.32123,-1.021519 -5.20909,-2.326896 0.47566,-0.293973 13.48222,-0.261066 28.90348,0.07313 22.71868,0.492333 28.03865,0.822803 28.03865,1.741725 0,0.929944 -4.10975,1.104137 -22.82956,0.967639 -12.55626,-0.09156 -25.56283,-0.296573 -28.90348,-0.455594 z m 3.14168,-36.713432 c 0,-0.05631 0.79023,-2.32917 1.75606,-5.050791 2.82871,-7.971014 3.15566,-22.254772 0.75206,-32.855822 -2.00053,-8.82332 -1.84613,-11.457223 0.62944,-10.737568 0.80863,0.235072 9.57578,1.251384 19.48256,2.258471 9.90677,1.007086 18.13364,1.936007 18.28195,2.064269 0.1483,0.128261 -0.34684,2.048987 -1.10031,4.268281 -3.37083,9.92854 -3.38424,27.603316 -0.0282,37.115445 0.92267,2.615108 0.97922,3.431568 0.2163,3.122583 -0.56816,-0.230106 -3.95479,-1.077601 -7.52584,-1.88332 L 557.9628,59.19717 V 48.029788 36.862407 h -4.99721 c -6.42802,0 -6.73173,0.574764 -6.73173,12.739309 v 9.498335 l -7.12115,1.681452 c -3.91663,0.924799 -7.12115,1.635377 -7.12115,1.579063 z m -5.23614,37.554161 c -4.80484,-0.301509 -5.62511,-0.997563 -4.06931,-3.4531 0.59438,-0.938118 4.63455,-1.039762 22.81673,-0.574034 12.15195,0.311267 25.20472,0.51823 29.00616,0.459917 6.88597,-0.105628 6.9117,-0.09803 6.9117,2.040153 v 2.146177 l -24.92402,-0.15841 c -13.7082,-0.0871 -27.09177,-0.29444 -29.74126,-0.460703 z m 42.30799,-4.147303 c 0.80637,-0.210725 2.12588,-0.210725 2.93224,0 0.80637,0.210725 0.14661,0.383137 -1.46612,0.383137 -1.61273,0 -2.27248,-0.172412 -1.46612,-0.383137 z M 524.61908,79.421609 c 0,-9.82818 3.63012,-13.622989 16.03179,-16.759107 11.17584,-2.826135 26.78069,-0.828664 34.06878,4.360913 2.99246,2.130823 6.49668,9.14328 5.02387,10.053523 -0.57021,0.352413 -0.68744,1.890681 -0.31946,4.191908 l 0.58129,3.635208 -3.31137,-2.661087 c -5.99659,-4.818998 -11.82108,-6.359276 -24.17676,-6.393516 -12.68924,-0.03516 -18.30836,1.307521 -24.15778,5.772479 l -3.74036,2.855084 z m -265.82135,17.983727 -4.6847,-0.298333 1.12413,-4.333633 c 0.61827,-2.383498 1.12413,-4.973308 1.12413,-5.755134 0,-1.162567 0.994,-1.472676 5.45684,-1.702433 4.11944,-0.212079 5.35141,-0.02427 5.02669,0.766296 -0.23658,0.575975 -0.65898,1.61273 -0.93867,2.303901 -0.39607,0.978764 0.15975,1.256673 2.51334,1.256673 1.66203,0 3.02187,0.377001 3.02187,0.837782 0,0.46078 0.37701,0.837782 0.83779,0.837782 0.46078,0 0.83778,-0.942505 0.83778,-2.094455 0,-1.231723 0.48072,-2.094455 1.16704,-2.094455 1.5117,0 2.18409,-1.841731 2.18409,-5.982437 0,-2.008032 0.3329,-3.126309 0.83778,-2.814274 0.46078,0.284778 0.83778,1.438032 0.83778,2.562789 0,1.124757 0.377,2.045012 0.83778,2.045012 0.93195,0 1.11306,-2.496739 0.32926,-4.539282 -0.27969,-0.728856 -1.03369,-1.325192 -1.67556,-1.325192 -0.64188,0 -1.16704,-0.377002 -1.16704,-0.837782 0,-0.46078 0.35159,-0.837782 0.78132,-0.837782 0.42973,0 1.0285,-0.778776 1.3306,-1.730611 0.92793,-2.923659 5.49824,-7.492444 9.54161,-9.538434 14.65323,-7.414706 38.93407,-6.236916 43.24404,2.097638 0.72664,1.405176 1.23382,4.694881 1.23382,8.002976 0,5.280744 -0.0878,5.540071 -1.46612,4.331541 -5.04645,-4.424719 -16.7668,-6.525314 -27.63814,-4.953482 -8.48712,1.227111 -17.7044,4.619518 -21.18235,7.796134 -2.31895,2.118032 -3.53956,4.792911 -1.65587,3.628731 0.96396,-0.595761 1.05964,0.775697 0.31416,4.503078 -0.30945,1.547253 -1.08043,2.674554 -1.88501,2.756172 -4.21916,0.428002 18.1823,1.354803 34.78305,1.439057 20.11317,0.10208 20.40584,0.152538 20.40584,3.518051 0,0.719253 -64.53378,0.851015 -75.47728,0.154106 z M 571.13777,63.415339 c -1.73898,-0.86717 -5.60325,-1.994878 -8.58727,-2.506019 l -5.42548,-0.929346 V 48.798273 37.616572 l -4.81725,0.251254 -4.81724,0.251254 -0.23324,11.025268 -0.23324,11.025268 -4.37456,0.595733 c -2.40601,0.327652 -6.16532,1.29856 -8.35403,2.157573 -2.1887,0.859012 -3.97946,1.44384 -3.97946,1.299615 0,-0.144224 0.89488,-2.494984 1.98862,-5.223912 3.05321,-7.617882 4.1481,-19.177095 2.69192,-28.419582 -0.65338,-4.147021 -1.81606,-9.015333 -2.58374,-10.818472 -1.71355,-4.024809 -0.50577,-7.400682 2.43389,-6.802969 0.96397,0.196002 9.85821,1.16808 19.76499,2.160173 9.90677,0.992094 18.47641,1.940395 19.04365,2.107336 0.75547,0.222339 0.56787,1.376654 -0.70131,4.315385 -4.07364,9.432342 -4.00238,29.754656 0.13716,39.112763 0.972,2.197365 1.64152,4.072506 1.48782,4.166981 -0.1537,0.09448 -1.70225,-0.53773 -3.44123,-1.404901 z M 287.2728,59.087743 c 4.17417,-7.396222 5.4959,-18.075448 3.52532,-28.483704 -0.84471,-4.46158 -2.39988,-9.379136 -3.70413,-11.712689 -2.64354,-4.729816 -2.73989,-5.634982 -0.782,-7.346716 1.32043,-1.154416 3.38089,-1.048849 20.73511,1.062355 10.59794,1.289278 19.32316,2.373155 19.38938,2.408615 0.0662,0.03546 -0.27594,1.66673 -0.76033,3.625045 -1.56516,6.327624 -1.22291,27.001228 0.56883,34.360792 0.87097,3.577498 1.37804,6.710075 1.12683,6.961283 -0.37896,0.378967 -9.74687,-1.908584 -10.50949,-2.566317 -0.13099,-0.112972 -0.55722,-4.797153 -0.94718,-10.409289 -0.38997,-5.612137 -0.88685,-10.381712 -1.1042,-10.599056 -0.21734,-0.217343 -2.40803,-0.482281 -4.8682,-0.588749 l -4.47303,-0.193579 0.23259,11.049097 0.2326,11.049098 -3.21392,0.508949 c -3.09166,0.489588 -13.19307,3.567091 -16.57564,5.049944 -1.37242,0.601647 -1.19265,-0.06406 1.12746,-4.175079 z m -3.83942,-45.097774 1.29,-1.56 m 0,0 1.23,-1.39 m 0,0 1.17,-1.2099995 m 0,0 1.11,-1.07 m 0,0 1.05,-0.93 m 0,0 1.01,-0.82 m 0,0 0.97,-0.73 m 0,0 0.93,-0.66 m 0,0 0.9,-0.59 m 0,0 0.87,-0.55 m 0,0 0.84,-0.49 m 0,0 0.83,-0.45 m 0,0 0.82,-0.41 m 0,0 0.8,-0.37 m 0,0 0.8,-0.34 m 0,0 0.8,-0.31 m 0,0 0.81,-0.29 m 0,0 0.81,-0.26 m 0,0 0.81,-0.23 m 0,0 0.81,-0.21 m 0,0 0.81,-0.19000001 m 0,0 0.82,-0.16 m 0,0 0.81,-0.13 m 0,0 0.81,-0.11 m 0,0 0.81,-0.08 m 0,0 0.8,-0.05 m 0,0 0.81,-0.03 m 0,0 h 0.79 m 0,0 0.79,0.03 m 0,0 0.79,0.05 m 0,0 0.77,0.07 m 0,0 0.77,0.11 m 0,0 0.76,0.13 m 0,0 0.75,0.15 m 0,0 0.73,0.19000001 m 0,0 0.73,0.2 m 0,0 0.71,0.24 m 0,0 0.7,0.25 m 0,0 0.69,0.29 m 0,0 0.67,0.3 m 0,0 0.66,0.33 m 0,0 0.64,0.37 m 0,0 0.64,0.39 m 0,0 0.62,0.43 m 0,0 0.63,0.47 m 0,0 0.62,0.52 m 0,0 0.62,0.56 m 0,0 0.63,0.62 m 0,0 0.63,0.68 m 0,0 0.63,0.74 m 0,0 0.63,0.84 m 0,0 0.63,0.93 m 0,0 0.61,1.0499995 m 0,0 0.59,1.18 m 0,0 0.58,1.32 m 0,0 0.55,1.48 m 0,0 -40.34,-4.7399995 m 0,0 5.55,-4.53 m 0,0 6.27,-3.17 m 0,0 6.57,-1.60000001 m 0,0 6.4,0.1 m 0,0 5.81,1.77000001 m 0,0 4.81,3.34 m 0,0 3.5,4.6599995 m 0,0 1.43,4.17 m 202.71,1.9 0.92,-1.47 m 0,0 0.91,-1.3 m 0,0 0.89,-1.17 m 0,0 0.89,-1.03 m 0,0 0.87,-0.92 m 0,0 0.85,-0.8199995 m 0,0 0.83,-0.74 m 0,0 0.82,-0.66 m 0,0 0.79,-0.61 m 0,0 0.78,-0.55 m 0,0 0.77,-0.5 m 0,0 0.76,-0.46 m 0,0 0.75,-0.41 m 0,0 0.75,-0.38 m 0,0 0.75,-0.35 m 0,0 0.76,-0.32 m 0,0 0.77,-0.3 m 0,0 0.78,-0.26 m 0,0 0.79,-0.25 m 0,0 0.8,-0.22 m 0,0 0.8,-0.19 m 0,0 0.81,-0.17 m 0,0 0.81,-0.14 m 0,0 0.82,-0.11 m 0,0 0.82,-0.09 m 0,0 0.83,-0.06 m 0,0 0.82,-0.04 m 0,0 0.83,-0.01 m 0,0 0.82,0.02 m 0,0 0.83,0.04 m 0,0 0.82,0.07 m 0,0 0.82,0.1 m 0,0 0.82,0.12 m 0,0 0.81,0.15 m 0,0 0.81,0.17 m 0,0 0.8,0.2 m 0,0 0.79,0.22 m 0,0 0.79,0.25 m 0,0 0.78,0.28 m 0,0 0.77,0.3 m 0,0 0.75,0.33 m 0,0 0.75,0.35 m 0,0 0.75,0.39 m 0,0 0.75,0.42 m 0,0 0.76,0.46 m 0,0 0.76,0.51 m 0,0 0.77,0.56 m 0,0 0.79,0.61 m 0,0 0.82,0.67 m 0,0 0.83,0.75 m 0,0 0.85,0.8399995 m 0,0 0.88,0.95 m 0,0 0.9,1.09 m 0,0 0.92,1.23 m 0,0 0.95,1.4 m 0,0 0.97,1.59 m 0,0 -43.17,-4.67 m 0,0 4.74,-4.5899995 m 0,0 5.78,-3.23 m 0,0 6.45,-1.66 m 0,0 6.67,0.02 m 0,0 6.44,1.72 m 0,0 5.76,3.28 m 0,0 4.7,4.6299995 m 0,0 2.63,4.5 m 220.02,69.71 -1.81,-2.78 m -793.66999754,-4.68 1.93000004,-2.7 m 310.5599975,-32.25 0.16,2.92 m -2.14,-3.45 0.53,-0.06 m -1.32,0.51 0.3,-0.24 m -0.12,3.39 -0.18,-3.15 m 0.3,-0.24 0.49,-0.21 m 0.53,-0.06 0.54,0.07 m 0,0 0.51,0.22 m 0,0 0.4,0.3 m -2.33,3.27 -0.26,-0.2 m -30.64,23.29 -0.04,-0.01 m 0,0 0.1,-0.13 m 271.43,-23.99 -0.03,3.04 m 2.07,-3.53 -0.56,-0.07 m 1.39,0.53 -0.32,-0.24 m -2.58,3.31 0.13,0.1 m 2.74,-0.02 0.03,-3.15 m -0.32,-0.24 -0.51,-0.22 m -0.56,-0.07 -0.56,0.06 m 0,0 -0.52,0.21 m 0,0 -0.4,0.29 m 2.79,3.16 0.05,-0.04 m 26.07,23.82 h 0.04 m -55.2,-0.29 h 0.04 m 55.16,0.29 -0.04,-0.13 m -55.12,-0.29 -0.04,0.13 m -2.25,21.02 0.04,-0.24 m 58.69,-6.62 h -0.1 m 0.5,-0.08 -0.51,0.01 m 0.5,-0.57 -0.53,0.01 m 0.54,0.33 -0.52,0.01 m 0.49,-0.8 -0.54,0.02 m 0.49,-0.54 -0.52,0.02 m -0.03,-0.57 h 0.51 m -328.63,-9.5 0.24,2.16 m 13.68,-20.64 -0.46,1.93 m 1.68,-3.85 0.09,-0.81 m -9.08,17.36 -0.72,1.02 m 1.64,-2.28 -0.53,0.87 m 5.33,-4.55 -2.15,1.22 m -8.25,19.66 0.62,-4.99 m 6.18,-13.46 1.45,-1.21 m 2.15,-1.22 0.95,-0.51 m 7.77,-19.09 1.28,-2.05 m -1.5,16.32 -0.05,-0.61 m 57.02,19.86 0.22,0.53 m -20.1,-37.39 -0.2,0.29 m -30.74,8.82 6.62,-4.76 m -14.11,40.94 -2.4,-0.02 m -0.25,-5.24 0.47,-0.49 m 1.43,-0.78 -0.48,0.15 m 1.43,-0.08 -0.04,1.29 m -0.43,-1.38 0.47,0.09 m 55.19,10.58 -41.14,-0.38 m 44.61,0.42 -3.3,-0.04 m -41.31,-0.38 -3.61,-0.04 m 50.98,0.48 -2.76,-0.02 m -64.24,-4.21 2.98,0.03 m 36.86,3.23 20.94,0.19 m -20.94,-0.19 -20.2,-0.19 m 48.68,6.92 -57.3,-0.54 m 4.37,-15.83 4.1,-2.97 m -6.45,-9.32 -2.16,4.63 m 9.72,5.07 -3.86,2.81 m 239.43,10.1 -0.04,0.18 m -0.5,-0.53 0.04,-0.23 m -0.04,0.23 -0.03,0.14 m -0.02,0.13 -0.11,0.67 m 0.64,-0.39 -0.1,0.63 m -0.6,0.13 0.06,-0.37 m 0.25,-1.47 -0.05,0.3 m 0.05,-0.3 0.06,-0.34 m 0.66,-3.71 -0.01,-0.06 m 60.76,-9.36 -0.11,2.16 m -0.25,3.63 -0.01,-0.52 m 0.23,-27.81 -0.45,-0.9 m -1.52,15.68 -0.08,-1.31 m -2.13,-13.53 -1.03,-2.82 m -6.54,-26.81 -1.4,11.22 m 1.6,18.53 4.98,11.81 m -43.57,-43.69 -3.36,-7.96 m 3.56,37.7 -1.91,4.7 m -0.72,1.77 -2.72,6.69 m 47.42,-50.32 -3.88,9.55 m -38.39,-2.13 1.72,12.39 m 34.81,4.63 2.06,14.86 m -23.83,-17.56 -0.03,3.33 m -0.18,18.77 0.18,-18.77 m 8.44,18.85 0.18,-18.76 m -35.02,49 -0.01,0.74 m 59.59,-1.07 h 0.36 m -4.66,1.41 -0.01,1.41 m -49.6,-0.62 0.01,-1.23 m 54.17,-5.3 -0.02,-0.25 m 0.11,4.7 -0.03,2.26 m 0,0 v 0.49 m 0.03,-2.87 v 0.12 m -58.87,0.77 0.01,-1.57 m -0.02,2.82 0.01,-0.35 m 0,-0.9 v 0.44 m 3.94,-2.01 0.03,-3.38 m 46.82,8.9 -42.8,-0.4 m 46.9,0.44 -4.03,-0.04 m -46.97,-0.44 3.8,0.04 m 0.31,-0.72 42.8,0.4 m 8.33,7.980001 -25.02,-0.23 m -26.41,-8.150001 h 0.3 m -6.98,0.66 0.14,-15.09 m 53.78,10.66 0.03,-3.32 m 2.94,-6.81 -0.01,0.39 m 0,0 -0.04,4.66 m -58.33,15.240001 59.62,0.56 m -2.12,-20.860001 0.01,-2.65 m -22.93,24.710001 -34.59,-0.93 m 267.42,-11.200001 5.95,-3.86 m -7.67,1.03 5.79,-3.77 m -10.18,10.16 6.11,-3.56 m -7.7,0.65 5.98,-3.48 m -17.11,12.630001 6.43,-2.960001 m -7.71,-0.09 6.28,-2.9 m -25.05,12.960001 6.79,-2.01 m -7.58,-1.21 6.62,-1.97 m -26.67,9.26 7.01,-1.02 m -7.31,-2.29 6.84,-1 m -126.66,0.66 53,2.15 m -52.97,-5.47 53.01,2.16 m -159.09,-2.04 53.03,1.41 m -106.07,-2.46 53.04,1.05 m -53.01,-4.370001 53.04,1.050001 m -169.07,-2.030001 9.93,-0.01 m -53.07,3.370001 53.05,-0.06 m -106.1,0.48 53.05,-0.42 m -159.13,2.37 53.04,-1.16 m -53.02,-2.15 53.04,-1.16 m -119.839998,1.41 -6.82,-1.13 M 6.0733825,82.949969 l -5.87000004,-3.97 m 7.65000004,1.17 -5.72,-3.87 m 9.9899995,10.35 -6.0499995,-3.68 m 7.6899995,0.8 -5.9099995,-3.6 m 16.8699995,12.96 -6.38,-3.09 m 7.72,0.06 -6.23,-3.02 m 25.66,10.23 -6.59,-2.09 m 5.73,5.290001 -6.75,-2.140001 m 216.229998,-10.86 -0.1,0.05 m 18.25,0.12 -0.1,0.05 m 3.59,-12.84 -0.11,0.13 m 302.5,-11.83 -0.02,0.29 m -51.36,22.97 v 0.07 m 53.93,-5.73 0.11,1.43 m 0,0 0.03,0.54 m -325.47,-11.72 -0.03,0.04 m 0.05,-0.07 -0.02,0.03 m 1.11,9.23 -0.06,0.47 m 0.17,-1.32 -0.11,0.85 m 16.73,-18.96 0.18,1.15 m 307.45,20.3 0.12,2.17 m -325.62,-13.85 -0.05,0.06 m 1.13,9.6 -0.05,0.34 m 17.02,-18.62 0.14,0.9 m 310.01,-7.37 0.02,0.05 m -6.08,31.14 v -0.07 m -0.03,2.33 0.03,-2.26 m 3.61,-0.09 0.22,3.49 m -0.23,-3.56 0.01,0.07 m -0.13,-2.16 0.03,0.57 m -325.7,-14.36 -0.05,0.07 m 1.13,9.87 -0.16,1.2 m 17.32,-18.92 0.13,0.85 m 248.85,26.06 0.04,-0.23 m -0.09,0.53 0.05,-0.3 m 57.95,-16.23 0.01,0.01 m -0.07,-0.07 0.06,0.06 m 3.1,-18 0.03,0.07 m -2.8,18.25 0.49,7.92 m -0.82,-13.21 0.33,5.29 m -3.31,12.75 v -0.22 m -52.93,-28.36 0.05,-1.63 m 56.47,29.9 0.01,0.22 m -0.09,-1.52 0.03,0.52 m -3.26,1.16 0.01,0.03 m -0.03,-0.11 0.02,0.08 m -322.59,-15.89 -0.07,0.1 m 0.14,-0.18 -0.07,0.08 m 0.28,-0.36 -0.06,0.08 m 16.93,-18.76 0.04,0.08 m -0.21,-0.42 0.17,0.34 m -16.11,30.03 -0.52,4.08 m 17.97,-22.15 0.55,3.67 m 50.44,14.29 0.06,0.03 m -1.22,-0.73 1.16,0.7 m -8.7,-23.84 -1.13,-18.66 m -33.06,47.16 -0.01,0.26 m 0.03,-2.44 -0.02,2.18 m 240.82,3.02 0.36,-1.88 m -0.39,2.07 0.03,-0.14 m 57.89,-15.85 0.03,0.02 m 3.14,-17.88 0.05,0.11 m -0.1,-0.19 0.05,0.08 m -3.48,8.15 0.3,4.73 m -2.98,17.82 0.01,-0.34 m 3.56,-0.09 0.02,0.34 m -0.05,-0.78 0.03,0.44 m -3.38,0.43 0.07,0.21 m -322.72,-15.6 -0.27,0.34 m 0.35,-0.45 -0.08,0.11 m 2.46,4.27 -0.04,0.31 m 0.15,-1.18 -0.11,0.87 m 14.52,-24.18 0.15,0.32 m -0.42,-0.87 0.09,0.18 m -0.18,-0.36 0.09,0.18 m 0.17,26.47 -0.87,-5.73 m 1.72,11.27 -0.85,-5.54 m 2.31,-9.63 1.17,7.66 m 34.93,3.81 3.65,0.05 m -4.2,-0.05 h 0.55 m 14.4,2.85 1.12,0.68 m -50.42,-38.61 -0.43,1.63 m 1.56,-5.93 -1.13,4.3 m 6.34,42.82 v 0.77 m 29.26,-29.53 -3.59,0.17 m 4.33,-0.2 -0.74,0.03 m 211.63,34.52 0.02,0.03 m -0.08,-2.98 v -0.05 m 57.92,-15.78 0.05,0.04 m -3.06,12.44 v -0.26 m -53.04,-24.63 0.08,-2.96 m 53.9,0.11 -0.03,1.17 m 0.06,-2 -0.03,0.83 m -0.86,27.74 0.1,0.34 m -0.18,-0.6 0.08,0.26 m -0.31,-1.02 0.23,0.76 m -320.05,-10.21 -0.24,2.01 m 10.45,-25.12 0.33,-0.07 m -1.34,3.83 -0.57,-1 m 0.69,1.22 -0.12,-0.22 m 1.37,9.02 -0.83,-0.38 m 1.91,0.88 -1.08,-0.5 m 6.11,-7.13 0.34,1.18 m -1.28,-4.36 0.94,3.18 m -2.3,-7.4 0.18,0.37 m -0.72,-1.46 0.36,0.73 m 1.18,3.01 0.02,0.12 m -0.06,-0.29 0.04,0.17 m -17.19,32.76 -0.12,0.89 m -1.81,5.98 0.46,0.1 m 21.22,-18.06 0.3,2 m 7.51,-15.59 -0.39,0.94 m 1.04,-2.5 -0.65,1.56 m 26.39,17.4 h 0.18 m 16.52,3.8 0.29,0.18 m -0.36,-0.22 0.07,0.04 m -0.45,-0.27 0.38,0.23 m -36.42,-49.73 0.21,1.18 m -0.75,-4.17 0.54,2.99 m 34.98,56.27 0.66,0.01 m -1.05,-0.01 h 0.39 m 0.93,-44.26 0.09,0.74 m -1.1,-9.08 1.01,8.34 m -11.34,-5.76 -7.73,-0.06 m 8.2,0.07 -0.47,-0.01 m -1.5,7.34 0.03,0.01 m -0.24,-0.09 0.21,0.08 m 0.22,3.69 -0.19,0.16 m 0.24,-0.19 -0.05,0.03 m -38.1,-4.76 -0.86,3.28 m 37.78,35.88 5.11,0.05 m -5.45,-0.05 h 0.34 m -1.5,-0.12 0.87,0.01 m -1.9,-0.02 1.03,0.01 m -28.65,2.92 -0.04,4.11 m 30.65,-33.63 3.31,0.26 m -3.92,-0.3 0.61,0.04 m 18.44,23.67 -0.17,-0.38 m 0.47,1.1 -0.3,-0.72 m -0.17,-0.38 -0.23,-0.54 m -22.98,-22.59 -0.6,0.03 m 215.27,34.14 v 0.05 m 0.31,-1.81 0.06,-0.34 m -0.15,0.86 0.09,-0.52 m 61.36,-34.46 0.71,1.51 m -0.78,-1.66 0.02,0.04 m -4.35,2.24 -0.24,1.37 m 0.29,-1.64 -0.05,0.27 m 0.67,4.7 0.76,0.27 m -2.16,-0.78 1.4,0.51 m -55.92,4.05 0.28,-2.78 m -1.51,21.73 v 0.07 m 0,-0.14 v 0.07 m 0.02,-4.17 -0.01,0.21 m 0.01,-0.29 v 0.08 m 1.21,-14.78 -0.09,-4.88 m -0.41,19.58 0.41,-19.58 m 0,-0.07 v 0.07 m 58.31,27.23 -0.33,0.03 m 0.52,-0.05 -0.19,0.02 m -0.46,-14.21 -0.05,-0.78 m 0.46,7.35 -0.41,-6.57 m -0.32,10.39 0.01,0.14 m -0.28,-3.72 0.03,0.49 m -11.06,-44.16 0.14,-1.09 m -35.13,0.12 0.2,1.39 m -0.34,-2.47 0.14,1.08 m -3.6,20.99 -0.69,1.75 m -4.15,26.07 v -0.2 m 0,0.27 v -0.07 m 21.35,-44.62 8.53,0.08 m 21.35,18.47 -0.01,-0.13 m -50.19,-16.9 -2.57,5.56 m -0.89,15.64 0.06,-2.89 m 53.95,-1.68 -0.1,3.73 m 0.03,-10.6 -0.2,-5.17 m 0.29,7.48 -0.09,-2.31 m 3.16,33.97 -0.3,0.01 m 0.4,-0.01 h -0.1 m -58.69,4.83 v 0.08 m 7.99,3.03 h -0.3 m 51.94,1.53 0.95,4.710001 m -1.15,-5.550001 0.17,0.78 m -0.64,-3.03 0.47,2.25 m -0.92,-5.13 0.17,2.87 m -54.74,-3.55 -0.03,2.87 m -2.15,-12.89 -0.22,-0.01 m 0.32,0.01 h -0.1 m 53.18,10.65 -0.03,2.88 m -25.93,-32.82 -3.83,0.21 m 4.48,-0.25 -0.65,0.04 m -24.96,25.66 0.32,-0.98 m -0.37,1.11 0.05,-0.13 m -0.05,0.2 v -0.07 m -0.3,0.93 0.3,-0.86 m 51.39,-17.3 0.74,0.81 m -1.93,-2.1 1.19,1.29 m -21.59,-8.33 2.92,0.19 m -6.32,-0.41 3.4,0.22 m -279.07,38.34 14.19,-0.12 m -38.51,0.31 24.32,-0.19 m 243.39,2.330001 1.43,0.03 m 57.84,-37.180001 -0.01,-0.15 m -271.67,17.51 -0.7,1.28 m 1.64,-3 -0.94,1.72 m -41.96,-14.81 -2.4,1.85 m 3.89,-2.99 -1.49,1.14 m -4.27,3.9 -1.57,1.72 m 3.44,-3.77 -1.87,2.05 m -6.56,4.79 -0.03,0.01 m 0.74,0.34 -0.06,0.04 m 0.07,-0.07 -0.01,0.03 m -1.68,-4.4 0.01,0.07 m 2.9,-2.99 -0.23,0.36 m 0.64,-0.99 -0.41,0.63 m -3.85,4.51 -0.32,0.42 m 1.07,-1.41 -0.75,0.99 m 0.97,-1.28 -0.22,0.29 m 2.67,5.96 -0.11,0.94 m 1.18,-6.43 -0.19,0.65 m 0.4,-1.36 -0.21,0.71 m 14.18,-15.76 -0.04,0.11 m -5.31,-3.85 0.55,-0.13 m -0.28,0.22 0.94,-0.21 m 0,0 -0.07,-0.04 m 0.08,0.05 -0.01,-0.01 m -1.12,4.73 -0.43,-0.76 m 0.88,-3.46 0.05,0.07 m -0.5,4.15 0.79,-2.68 m -0.79,2.69 v -0.01 m -0.52,1.2 0.52,-1.19 m -0.77,1.76 0.25,-0.57 m 3.18,7.69 -0.76,-0.35 m -0.98,-12.47 -0.04,0.44 m -0.35,-1.66 -0.01,-1.74 m 6.75,8.98 0.04,0.12 m -0.16,0.36 0.16,-0.36 m -1.11,2.54 0.95,-2.18 m -1.5,-6.29 0.34,1.45 m -17.67,32.08 -0.33,2.49 m 0.69,-10.23 -0.94,2.75 m 0,0 0.03,-0.23 m -0.8,11.3 0.07,0.02 m 0.9,-3.28 -0.02,0.12 m 0.03,-0.23 -0.01,0.11 m 15.46,-21.44 v -0.02 m 0.13,0.9 -0.13,-0.88 m -0.37,-2.45 -0.04,-0.25 m 0.1,0.68 -0.06,-0.43 m 3.59,20.3 0.56,0.07 m -1.23,-1.15 -0.31,-2.18 m 0.49,-33.49 -0.5,3.87 m 0.56,-4.31 -0.06,0.44 m 2.36,27.54 0.48,3.21 m 6.64,-17.86 -1.53,3.71 m 26.89,12.73 1.42,0.02 m 18.15,5.56 0.49,0.67 m -1.65,-2.25 1.16,1.58 m -3.31,3.09 0.23,-5.83 m -0.27,7.48 0.04,-1.65 m -19.62,-8.34 3.36,-0.33 m -5.98,0.6 2.62,-0.27 m -9.06,1.73 0.69,-0.24 m -5.12,1.76 4.43,-1.52 m -5.74,-46.83 0.71,4.01 m 34.72,51.09 h 0.31 m 2.34,-7.33 -2.73,-1.65 m 3.39,2.05 -0.66,-0.4 m -2.29,-36.2 0.7,5.84 m -6.01,28.56 3.01,0.94 m -4.3,-1.34 1.29,0.4 m 7.02,-25.4 0.19,0.6 m -1.2,-3.76 1.01,3.16 m 3.06,30.09 -0.16,-4.13 m -49.15,-13.58 v -0.37 m 0.01,0.81 -0.01,-0.44 m 8.11,-19.8 0.46,-2.77 m -1.41,8.45 0.95,-5.68 m 21.02,-4.05 0.2,-0.18 m 2.18,11.4 -0.11,0.09 m 0.27,-0.22 -0.16,0.13 m -6.06,0.54 v -0.09 m 0.12,3.2 -0.12,-3.11 m 5.67,-8.65 0.28,0.12 m -2.52,0.65 0.28,-0.25 m -0.39,0.35 0.11,-0.1 m 0.17,-3.84 0.08,-0.04 m 2.51,7.16 -0.17,0.13 m -2.4,-0.26 -0.12,-0.09 m 0.45,0.34 -0.33,-0.25 m -36.75,12.52 -0.04,0.15 m 0.81,-3.08 -0.77,2.93 m 1.8,-6.85 -0.91,3.44 m 1.24,-4.66 -0.33,1.22 m -1.25,-7.18 -1.28,4.81 m 34.45,33.86 -0.08,0.04 m 0.1,-0.05 -0.02,0.01 m -53.32,2.44 0.03,0.05 m -0.09,-0.15 0.06,0.1 m 0.34,-2.77 h 0.36 m -0.55,-0.01 0.19,0.01 m -0.38,0.18 0.01,-0.01 m 52.98,1.84 v 0.12 m -0.01,-0.37 0.01,0.25 m -34.84,-1.66 0.01,-0.02 m 51.9,-3.63 0.01,-1.21 m -0.06,6.47 0.05,-5.26 m -2.52,5.24 -2.98,-0.03 m -46.46,-5.61 -0.03,0.89 m 39.32,0.25 0.1,0.02 m -0.15,-0.03 0.05,0.01 m -2.52,0.08 2.76,0.02 m -3.05,-0.13 h 0.86 m -49.59,-0.35 5.44,0.05 m -8.21,-0.08 2.77,0.03 m 8.5,-4.01 -0.36,0.49 m 0.39,-0.53 -0.03,0.04 m 13.43,11.4 -0.01,0.72 m -16.32,-8.06 -0.04,0.01 m 50.33,-26.04 2.68,0.21 m 11.08,4.05 2.26,1.97 m -3.03,-2.64 0.77,0.67 m 1.97,20.58 -0.3,-0.71 m -49.32,1.92 -0.12,0.15 m 1.57,-2.02 -1.45,1.87 m 25.04,-26.12 -2.06,0.1 m -23.56,9.5 0.74,-0.95 m -2.41,3.09 1.67,-2.14 m 241.48,24.59 -0.04,0.13 m -0.55,-0.13 -0.02,0.08 m 0.55,0.26 -0.02,0.02 m -0.33,-1.44 v 0.02 m 58.6,-12.84 0.01,0.02 m -0.33,-4.72 0.24,0.24 m 2.52,9.44 0.26,-3.11 m -2.23,-21.16 0.02,0.06 m -0.93,0.06 -0.01,0.08 m 1,-6.88 0.04,0.1 m -0.43,-1.03 0.39,0.93 m 3.05,5.12 0.06,0.13 m -0.82,-1.76 0.05,0.11 m -4.64,3.5 -0.49,2.82 m 0.09,0.93 -0.09,-0.93 m 0.56,5.82 -0.47,-4.89 m 0.64,-7.77 0.01,0.65 m -0.02,-1.38 0.01,0.73 m 1.43,7.62 0.3,0.11 m 2.08,32.95 -0.49,0.07 m -57.68,-38.71 0.45,0.03 m -2.57,28.35 0.01,0.14 m -0.01,-0.43 v 0.15 m 0,-0.32 v 0.17 m 0,-0.34 v 0.17 m 0,-0.35 v 0.18 m -0.01,-0.45 0.01,0.27 m -0.01,-0.37 v 0.1 m 0,-0.52 v 0.02 m 0,-0.41 v 0.39 m 0.01,-0.56 -0.01,0.17 m 0.01,-0.41 v 0.24 m 0,-0.56 v 0.32 m 0,-0.41 v 0.09 m 0,-0.52 v 0.02 m 0.01,-0.39 -0.01,0.37 m 0.01,-0.45 v 0.08 m 0,-0.37 v 0.29 m 0,-0.34 v 0.05 m 58.01,-17.6 0.59,4.69 m 0,0 -0.02,-0.34 m 1.24,20.53 -0.19,0.01 m -0.2,-6.91 -0.04,-0.71 m -0.62,5.04 0.03,0.27 m -0.04,-0.34 0.01,0.07 m -0.03,-0.29 0.02,0.22 m -0.03,-0.38 0.01,0.16 m -0.03,-0.34 0.02,0.18 m -0.04,-0.38 0.02,0.2 m -0.09,-0.97 0.04,0.38 m -0.04,-0.39 v 0.01 m -0.04,-0.55 0.01,0.15 m -0.03,-0.39 0.02,0.24 m 0.27,2.92 0.02,0.14 m -0.04,-0.31 0.02,0.17 m -0.43,-5.08 0.06,0.84 m -54.58,5.4 0.01,0.35 m 50.21,2.63 -0.99,-0.01 m 1.42,0.01 h -0.43 m 0.44,-1.46 -0.01,1.46 m 0.02,-2.12 -0.01,0.66 m 0.01,-0.97 -0.01,-0.12 m -7.52,-48.25 0.32,-2.58 m -4.21,45.03 -5.09,-1.29 m 5.23,1.33 -0.14,-0.04 m -39.24,6.26 -0.02,1.64 m 0.02,-2.14 v 0.5 m 0.61,1.65 -0.63,-0.01 m 1.42,0.02 -0.79,-0.01 m 50.05,-1.68 v -0.31 m -38.68,-6.27 -0.78,0.19 m 5.23,-1.25 -4.45,1.06 m -9.6,5.78 0.85,-0.49 m -0.86,0.5 0.01,-0.01 m -2.37,-0.07 -0.02,0.01 m 0.78,-0.45 -0.76,0.44 m -0.02,0.01 0.03,-2.49 m 24.13,-39.4 v -0.18 m -0.02,2.57 -0.05,0.04 m 0.45,-0.33 -0.4,0.29 m 2.87,-0.03 -0.32,-0.24 m 0.45,0.34 -0.13,-0.1 m -2.9,3.41 0.39,0.3 m -0.44,-0.34 0.05,0.04 m 2.87,0.08 0.13,-0.09 m -0.45,0.33 0.32,-0.24 m 2.98,-11.06 0.03,-3.34 m 22.07,21.39 0.27,-0.01 m -0.72,0.03 0.45,-0.02 m -0.78,0.59 -0.02,-0.04 m -50.7,2.41 v 0.02 m 4.31,-4.31 -4.31,4.29 m 0.5,-19.63 v 0.01 m -2.85,7.97 -0.38,4.47 m 0.68,-7.99 -0.3,3.52 m -0.74,17.94 0.13,-4.66 m 0.21,-8.19 v 0.54 m 0.02,-1.16 -0.02,0.62 m 53.7,7.35 -0.14,5.44 m 0.32,-12.33 -0.06,-1.4 m 3.9,27.33 0.96,-0.03 m -1.17,0.03 h 0.21 m 0.27,4.31 0.8,-0.02 m -0.91,0.02 h 0.11 m -60.86,2.83 v -0.03 m 1.43,-0.01 h -0.35 m 0.37,0 h -0.02 m 58.42,-3.4 v -0.2 m -58.77,3.65 v -0.04 m 57.76,5.63 -2.88,-0.03 m -55.03,-2.58 0.04,-0.16 m -0.47,2.06 v -0.02 m -1.34,5.910001 1.34,-5.890001 m 51.44,-0.08 h -0.07 m 7.88,-1.25 0.47,7.800001 m -57.61,-21.380001 h -0.38 m 53.75,13.54 -0.02,2.05 m -49.44,-28.39 -2.47,2.61 m 2.85,-3.01 -0.38,0.4 m 19.7,-6.27 -2.59,0.14 m 32.41,26.27 0.11,0.36 m -1.76,-20.65 0.85,0.94 m -24.54,-7.31 0.74,0.05 M 58.903382,103.87997 h 0.03 m 232.749998,-4.860001 43.12,-0.04 m -276.189998,4.850001 -0.2,-0.04 m 521.659998,-25.040001 -0.01,-0.01 m -53.27,10.64 v -0.04 m -4.12,3.25 0.03,-0.08 m -0.03,0.14 v -0.06 m 0.04,-0.23 0.03,-0.08 m -0.04,0.23 0.01,-0.15 m 0.04,-0.24 0.04,-0.13 m -0.05,0.29 0.01,-0.16 m -212.36,-7.2 -0.85,-5.5 m 2.35,5.62 -1.59,-5.71 m 1.01,5.61 -1.56,-5.61 m -0.39,5.58 -0.89,-3.23 m -47.73,-0.41 -2.96,0.54 m 40.45,-0.19 -2.5,-0.25 m -27.46,-0.82 -3.97,0.29 m -6.52,0.97 -1.58,0.45 m 8.1,-1.42 -3.56,0.43 m 18.83,-13.95 -4.88,0.41 m -9,3.49 -3.92,3.01 m 8.26,-5.2 -4.34,2.19 m 42.08,11.74 -4.62,-0.72 m 4.62,0.72 -2.98,-3.32 m -48.38,1.08 1.52,-2.78 m 12.65,-9.06 -0.55,0.15 m 4.66,-1.3 -0.49,0.13 m 7.84,-5.07 -4.88,0.41 m -8.99,3.49 -3.93,3.01 m 0,0 -3.44,3.78 m 16.36,-10.28 -3.51,0.99 m -4.57,2.04 -0.91,0.46 m -7.37,6.79 -2.87,4.46 m 24.86,-15.07 -0.75,-0.08 m -20.27,11.44 -3.44,3.77 m 0,0 -1.97,3.06 m 0.83,-2.99 0.61,-1.12 m 0,0 0.13,0.99 m 23.98,-16.14 -4.88,0.41 m 6.15,-0.28 -1.27,-0.13 m -21.24,10.69 -2.87,4.46 m 19.23,-14.74 -3.47,0.98 m 7.68,4.3 -1.67,-0.17 m 23.58,14.92 -4.92,-0.62 m -42.55,-6.06 0.02,-0.08 m -0.02,0.18 v -0.1 m 0.03,0.19 -0.03,-0.09 m 0.09,0.18 -0.06,-0.09 m 0.14,0.16 -0.08,-0.07 m 0.17,0.13 -0.09,-0.06 m 0.19,0.09 -0.1,-0.03 m 0.2,0.03 h -0.1 m 0.2,-0.01 -0.1,0.01 m 0.19,-0.05 -0.09,0.04 m 0.21,-0.18 -0.05,0.07 m 0.07,-0.16 -0.02,0.09 m 0.01,-0.19 0.01,0.1 m -0.04,-0.19 0.03,0.09 m -0.08,-0.18 0.05,0.09 m -0.13,-0.16 0.08,0.07 m -0.17,-0.12 0.09,0.05 m -0.19,-0.09 0.1,0.04 m -0.2,-0.04 h 0.1 m -0.2,0.01 0.1,-0.01 m -0.19,0.05 0.09,-0.04 m -0.16,0.11 0.07,-0.07 m -0.12,0.15 0.05,-0.08 m -1.21,-4.4 0.82,0.02 m -0.78,0.02 0.75,0.02 m -0.72,0.04 0.67,0.02 m -0.77,-0.15 0.87,0.02 m -0.72,0.27 0.5,0.01 m -0.52,-0.1 0.59,0.02 m -0.53,0.28 0.31,0.01 m -0.33,-0.12 0.41,0.01 m -0.41,-0.01 -0.02,-0.1 m 0,0 -0.02,-0.09 m 0,0 -0.03,-0.07 m 0,0 -0.03,-0.06 m 0,0 -0.04,-0.04 m 0,0 -0.03,-0.03 m 0,0 -0.04,-0.01 m 0,0 -0.04,0.01 m 0,0 -0.04,0.02 m -0.04,0.04 0.04,-0.04 m -0.49,0.63 0.45,-0.59 m -0.48,0.64 0.03,-0.05 m -0.06,0.11 0.03,-0.06 m -0.05,0.14 0.02,-0.08 m -0.05,0.16 0.03,-0.08 m -0.05,0.17 0.02,-0.09 m -0.04,0.19 0.02,-0.1 m -0.03,0.21 0.01,-0.11 m -0.02,0.22 0.01,-0.11 m -0.02,0.22 0.01,-0.11 m -0.01,0.23 v -0.12 m 0.01,0.23 -0.01,-0.11 m 0.05,0.57 -0.04,-0.46 m 0.99,-1.06 0.02,0.24 m -0.04,-0.35 -0.02,-0.11 m 3.8,-4.53 1.24,0.38 m 0,0 -0.15,-1.1 m -6.12,7.41 -0.62,1.89 m 0.62,-1.89 -2.06,4.24 m -0.44,1.52 0.44,-1.52 m 1.76,4.99 -1.78,-1.7 m 8.03,-12.68 0.32,-1.16 m -0.63,2.27 0.31,-1.11 m -1.75,-1.27 0.69,-1.43 m -0.31,2.29 0.45,-1.13 m -1.09,2.12 -1.95,1.96 m 3.65,-1.43 -0.62,2.39 m -0.82,-4.77 -0.03,1.49 m 1.95,-2.48 -1.23,-0.44 m -3.51,13.62 -1.68,3.46 m 5.19,-17.08 0.14,1.16 m -2.01,13.42 0.61,-1.24 m 0.99,-5.78 -0.49,1.65 m -2.66,7.63 -1.77,0.24 m 3.93,-3.74 -2.25,0.28 m 0,0 -1.76,-1.72 m -1.7,3.48 -0.42,-1.77 m 20.63,-22.86 -0.06,0.14 m 0.08,0.04 -0.03,-0.09 m 0.08,0.19 -0.05,-0.1 m 0.13,0.18 -0.08,-0.08 m 0.18,0.15 -0.1,-0.07 m 0.21,0.13 -0.11,-0.06 m 0.23,0.09 -0.12,-0.03 m 0.24,0.03 h -0.12 m 0.23,-0.02 -0.11,0.02 m 0.2,-0.06 -0.09,0.04 m 0.15,-0.1 -0.06,0.06 m 0.1,-0.14 -0.04,0.08 m 0.05,-0.17 -0.01,0.09 m -0.01,-0.19 0.02,0.1 m -0.08,-0.19 0.06,0.09 m -0.14,-0.18 0.08,0.09 m -0.17,-0.16 0.09,0.07 m -0.21,-0.12 0.12,0.05 m -0.24,-0.08 0.12,0.03 m -0.23,-0.04 0.11,0.01 m -0.22,0.01 0.11,-0.02 m -0.2,0.06 0.09,-0.04 m -0.16,0.11 0.07,-0.07 m -0.11,0.15 0.04,-0.08 m -0.05,0.17 0.01,-0.09 m -4.4,-3.33 0.95,-0.21 m -0.86,0.24 0.96,-0.2 m -0.79,0.32 0.85,-0.18 m -0.68,0.36 0.62,-0.13 m -0.7,0.03 0.73,-0.15 m -0.21,-0.3 -0.08,0.01 m 0.16,0 -0.08,-0.01 m 0.18,0.05 -0.1,-0.04 m -0.6,0.44 -0.09,-0.08 m 0,0 -0.08,-0.07 m 0,0 -0.09,-0.05 m 0,0 -0.09,-0.03 m 0,0 -0.09,-0.01 m 0,0 h -0.08 m 0,0 -0.09,0.03 m 0,0 -0.07,0.05 m 0,0 -0.07,0.06 m -0.06,0.09 0.06,-0.09 m -0.75,1.2 0.69,-1.11 m -0.74,1.19 0.05,-0.08 m -0.08,0.18 0.03,-0.1 m -0.06,0.21 0.03,-0.11 m -0.05,0.23 0.02,-0.12 m -0.02,0.24 v -0.12 m 0,0.25 v -0.13 m 0.01,0.26 -0.01,-0.13 m 0.04,0.26 -0.03,-0.13 m 0.06,0.26 -0.03,-0.13 m 0.07,0.25 -0.04,-0.12 m 0.09,0.24 -0.05,-0.12 m 1.67,-2.05 0.38,0.66 m -0.45,-0.78 -0.08,-0.1 m 1.46,-5.48 1.44,0.06 m 0,0 -0.84,-0.98 m -4,13.53 -0.38,1.82 m 3.12,-7.15 0.21,2.15 m -2.85,6.53 -0.48,-1.53 m 2.94,-8.72 -0.05,0.21 m 0.21,-0.85 -0.01,0.05 m -0.17,-0.08 0.42,-0.97 m 0,0 -0.24,1 m 2.53,-3.87 -0.41,-1.14 m -3.77,10.99 -0.37,-0.03 m 0,0 0.12,0.6 m 4.86,-9.35 -0.43,-1.07 m -1.58,-0.06 0.03,1.03 m -2.21,-0.8 1.05,-2.4 m 0.48,6.66 -0.28,1.65 m 0.93,-6.14 -0.27,-1.14 m -1.28,2.95 -0.01,0.01 m -2.11,9.65 0.42,-1.86 m 0,0 0.62,-1.88 m 2.19,-4.59 -0.21,1.35 m 0.68,-3.46 -0.47,2.11 m -1.74,-2.91 0.62,1.59 m -0.06,2.15 0.07,-0.41 m 1.88,-5.62 -1.46,-0.11 m 4.25,13.94 -2.54,5.83 m -1.71,-19.77 0.86,1.03 m 3.36,4.47 0.42,1.37 m -2.56,12.75 -0.37,0.15 m 4.65,-6.68 -2.11,0.85 m 0,0 -2.65,-1.27 m -0.52,-0.97 0.52,0.97 m -1.19,-2.21 0.67,1.24 m -2.04,6.84 -1.48,-1.55 m -9.2,15.61 -1.88,10.48 m 1.36,-10.4 -0.11,0.27 m 0,0 0.01,-0.26 m 3.11,-7.94 0.39,-0.39 m 1.12,-1.52 0.61,-0.6 m -6.53,21.06 -0.03,0.23 m 0,0 -0.05,0.23 m 0,0 -0.04,0.24 m 0,0 -0.05,0.24 m 0,0 -0.05,0.24 m 0,0 -0.05,0.24 m 0,0 -0.05,0.23 m 0,0 -0.05,0.22 m 0,0 -0.06,0.2 m -0.33,1.07 0.04,-0.14 m -0.09,0.25 0.05,-0.11 m -0.09,0.19 0.04,-0.08 m -0.07,0.12 0.03,-0.04 m -0.06,0.06 0.03,-0.02 m -0.05,0 0.02,0.02 m -0.04,-0.07 0.02,0.05 m -0.02,-0.13 v 0.08 m 0,-0.2 v 0.12 m 0,-0.25 v 0.13 m 0.02,-0.3 -0.02,0.17 m 0.04,-0.36 -0.02,0.19 m 0.97,-3.04 -0.04,0.22 m -0.91,2.63 0.3,-2.47 m 7.9,-19.29 0.38,-0.21 m -1.79,1.38 1.41,-1.17 m -2.56,2.43 1.15,-1.26 m 6.34,-5.97 -0.28,0.69 m -9.08,9.19 1.87,-2.65 m -4.69,16.48 1.25,-10.13 m -1.25,10.13 0.56,0.1 m -0.41,2.09 -0.06,0.21 m 0.11,-0.43 -0.05,0.22 m 0.1,-0.45 -0.05,0.23 m 0.1,-0.47 -0.05,0.24 m 0.1,-0.48 -0.05,0.24 m 0.1,-0.48 -0.05,0.24 m 0.09,-0.48 -0.04,0.24 m 0.09,-0.47 -0.05,0.23 m 0.12,-0.68 -0.04,0.22 m -0.91,3.39 0.03,-0.02 m 0,0 0.03,-0.04 m 0,0 0.04,-0.08 m 0,0 0.05,-0.11 m 0,0 0.05,-0.13 m -0.38,-0.66 -0.19,0.55 m 0.57,0.11 0.18,-0.56 m -0.75,0.45 0.57,0.11 m 12.37,-27.04 -0.37,0.11 m 0,0 -0.39,0.13 m 0,0 -0.92,0.5 m 0,0 -2.11,1.2 m 0,0 -1.41,1.17 m 0,0 -1.18,1.24 m 0,0 -2.1,2.95 m 0,0 -0.84,2.27 m 2.43,-5.45 0.59,-0.65 m 5.16,-3.54 0.45,-0.16 m 0,0 0.38,-0.11 m -11.83,26.64 -0.05,0.18 m -0.56,-0.1 0.56,0.1 m -0.51,-0.28 -0.05,0.18 m 0.66,-0.27 -0.05,0.19 m -0.51,-0.3 -0.05,0.2 m 12.7,-26.2 -0.31,-0.34 m 6.89,0.92 -2.35,5 m 0,0 -0.16,-1.03 m 2.51,-3.97 -0.16,-1.03 m 0,0 -2.35,5 m 0,0 -0.15,-0.97 m 2.5,-4.03 -0.14,-0.98 m 0,0 -2.36,5.01 m 2.36,-5.01 -0.14,-0.89 m 0,0 -2.35,5 m 0,0 -0.16,-1.03 m 2.51,-3.97 -0.16,-1.03 m 0,0 -2.35,5 m 0,0 -0.15,-0.97 m 2.5,-4.03 -0.14,-0.97 m 0,0 -2.36,5 m 2.36,-5 -0.11,-0.68 m -0.21,-8.95 0.13,-0.97 m -0.3,0.63 0.3,-0.63 m 0,0 0.12,-0.91 m 0,0 -0.57,1.22 m 0.57,-1.22 0.13,-1.03 m 0.37,-1.15 -1.34,2.85 m 1.34,-2.85 0.36,-1.15 m 2.08,33.98 0.01,0.36 m 0,0 -0.01,0.38 m 0,0 -0.02,0.38 m 0,0 -0.03,0.39 m 0,0 -0.04,0.39 m 0,0 -0.06,0.39 m 0,0 -0.07,0.38 m 0,0 -0.08,0.37 m 0,0 -0.09,0.35 m -0.78,1.85 0.12,-0.24 m -0.25,0.44 0.13,-0.2 m -0.26,0.34 0.13,-0.14 m -0.27,0.24 0.14,-0.1 m -0.27,0.15 0.13,-0.05 m -0.25,0.05 h 0.12 m -0.24,-0.06 0.12,0.06 m -0.23,-0.17 0.11,0.11 m -0.21,-0.27 0.1,0.16 m -0.19,-0.37 0.09,0.21 m -0.16,-0.46 0.07,0.25 m -0.13,-0.54 0.06,0.29 m 2.29,-5.29 0.02,0.35 m -2.19,-31.02 0.8,-0.82 m -2.48,1.68 1.79,-3.82 m -1.61,4.18 0.88,-1.88 m 2.79,31.33 -2.11,-13.89 m 2.11,13.89 0.67,0.08 m -5.98,-14.55 -0.01,-0.1 m 0.01,0.1 2.35,-5 m 3.36,22.93 -0.09,0.35 m 0.17,-0.72 -0.08,0.37 m 0.15,-0.74 -0.07,0.37 m 0.12,-0.76 -0.05,0.39 m 0.1,-0.78 -0.05,0.39 m 0.08,-0.78 -0.03,0.39 m 0.05,-0.78 -0.02,0.39 m 0.02,-0.76 v 0.37 m 0,-0.74 v 0.37 m -0.03,-0.71 0.03,0.34 m -1.82,5.73 0.12,0.01 m 0,0 0.13,-0.05 m 0,0 0.13,-0.1 m 0,0 0.13,-0.15 m 0,0 0.13,-0.2 m 0,0 0.13,-0.24 m -0.22,-1.05 -0.46,0.98 m 0.68,0.07 0.46,-0.97 m -1.14,0.9 0.68,0.07 m -0.16,-40.19 -0.9,1.45 m 0,0 -0.7,2.21 m -0.85,11.64 0.68,0.11 m -0.68,-0.11 -0.02,-0.24 m 0.19,-11.62 0.37,-1.15 m 1.64,-3.2 0.7,-0.72 m 0.29,40.54 -0.1,0.31 m -0.68,-0.08 0.68,0.08 m -0.57,-0.38 -0.11,0.3 m 0.88,-0.56 -0.1,0.33 m -0.58,-0.4 -0.09,0.33 m 6.22,-17.6 0.02,-0.54 m 46.99,20.09 2.36,0.02 m -47.01,0.4 -1.86,0.75 m 32.21,-8.46 5.23,0.73 m 11.45,7.04 -0.62,0.38 m -2.28,-0.02 0.54,-0.34 m -39.03,-56.8 -1.34,-6.75 m -6.15,63.19 0.26,-0.16 m 1.59,0.44 -1.86,-0.02 m 2.47,-0.35 -0.61,0.37 m -0.23,-0.85 2.37,0.02 m 9.74,-5.95 -5.66,1.94 m 1.72,-43.69 -2.66,-14.93 m 7.54,57.5 5.75,-1.22 m 27.84,7.62 -4.28,2.11 m 2,-2.13 -3.36,2.12 m 0.97,-8.97 -4.75,-1.48 m 5.06,-56.98 -0.97,14.83 m 0.97,-14.83 0.63,-2.33 m -45.03,48.06 -0.06,0.18 m 20.63,10.85 -6.34,1.35 m 12.94,-2.01 -6.6,0.66 m -12.94,-55.33 -1.46,-2.84 m -1.98,-1.35 2.46,4.18 m -4.53,-9.6 2.07,5.42 m 45.11,65.76 -1.82,-2.49 m -41.59,2.37 4.16,-2.19 m 29.29,-3.71 -5.77,-0.81 m -25,3.88 -4.58,2.41 m 3.51,-29.8 0.72,-1.48 m -0.72,1.48 -4.38,7.73 m 1.69,-5.09 2.34,-4.13 m 37.88,-33.5 1.04,-5.58 m 2.1,48.55 -1.74,-7.13 m 0.59,31.46 -0.02,-0.5 m -0.04,-1.11 0.04,1.11 m 2.36,0.02 -0.06,-1.49 m 0.06,1.49 0.02,0.46 m -47.26,-73.13 0.06,-0.03 m 44.3,73.52 -0.01,-2.62 m 2.29,2.64 -2.28,-0.02 m -44.3,-73.52 3.99,6.8 m -5.41,65.86 1.36,-0.41 m 1.87,-1.58 -1.87,1.58 m 1,-23.65 -3.11,3.99 m 4.48,19.68 1.4,-1.18 m -1.4,1.18 -1.53,0.46 m -0.38,-26.35 2.23,-2.87 m 28.76,20.87 -6.4,-0.07 m -16.88,-39.74 -2.07,14.82 m 0.34,-8.46 0.89,-6.37 m 17.08,1.63 0.15,0.12 m -0.31,-0.24 0.16,0.12 m 0.15,0.12 0.16,0.13 m 7.87,17.94 v 0.02 m -8.49,-18.43 0.15,0.1 m -0.29,-0.19 0.14,0.09 m 8.19,18.62 0.3,-0.19 m -1.67,-18.15 -0.11,0.12 m 1.01,16.8 0.13,0.15 m 0.22,0.29 0.1,0.13 m -0.32,-0.42 0.11,0.14 m -1.04,-17.32 -0.1,0.11 m 1.14,17.21 0.11,0.15 m -0.48,-0.59 0.13,0.15 m -0.71,-17.13 -0.09,0.1 m 0.24,-0.27 -0.07,0.08 m -7.37,-0.15 0.14,0.08 m 8.31,17.86 0.08,0.13 m -1.03,-18.07 -0.06,0.07 m 1.09,18 0.07,0.13 m -1.23,-18.05 -0.08,0.09 m 1.31,17.96 0.06,0.12 m -1.11,-18.38 -0.05,0.06 m 1.16,18.32 0.05,0.1 m -1.09,-18.56 -0.03,0.03 m 0,0 -0.04,0.05 m 1.16,18.48 0.04,0.1 m -1.12,-18.69 -0.01,0.03 m -0.63,0.71 -0.12,0.12 m -7,-0.77 0.13,0.08 m -0.25,-0.14 0.12,0.06 m -0.24,-0.1 0.12,0.04 m -0.22,-0.08 0.1,0.04 m -0.2,-0.06 0.1,0.02 m -0.18,-0.03 0.08,0.01 m 3.35,4.75 0.12,-0.33 m 0.48,-0.51 0.32,-0.13 m 0,0 0.36,-0.05 m 1.6,3.67 -0.14,-2.26 m 0.55,9.06 -0.19,-3.11 m -2.35,3.78 -0.15,-0.34 m -0.26,-3.41 0.19,3.05 m -0.55,-9.06 0.17,2.86 m -0.17,-2.86 0.02,-0.36 m 5.09,12.71 -1,-16.53 m 0,0 -5.97,-0.05 m 0,0 1,16.52 m 4.14,-2.84 -0.11,0.33 m -1.16,0.69 -0.36,-0.06 m -4.19,3.41 0.26,-0.16 m 4.15,-11.64 0.54,0.07 m 0.76,3.86 0.38,-0.35 m -0.62,-3.3 0.44,0.34 m 0,0 0.36,0.44 m 0,0 0.24,0.5 m 0,0 0.1,0.54 m 0,0 -0.04,0.54 m 0,0 -0.17,0.51 m -7.87,-13.63 -0.16,0.1 m 8.03,13.53 -0.31,0.43 m 0,0 -0.41,0.32 m -6.4,4.73 -0.16,0.1 m 0.16,-0.1 -0.61,-15.57 m 4.72,7.21 0.49,-0.21 m 1.8,3.84 -0.48,0.21 m -1.32,-4.05 0.53,-0.06 m 0.79,4.11 -0.53,0.07 m 0,0 -0.54,-0.08 m 0,0 -0.52,-0.21 m 0,0 -0.45,-0.34 m 0,0 -0.35,-0.44 m 0,0 -0.24,-0.5 m 0,0 -0.1,-0.54 m 3.16,5.53 -0.12,0.33 m -1.87,-11.15 0.36,0.05 m 1.85,10.24 -0.2,0.17 m -0.77,-9.76 0.16,0.34 m -0.4,-0.63 0.24,0.29 m 0.42,0.53 -0.19,0.17 m -1.11,-1.35 0.34,0.14 m 0,0 0.3,0.22 m -1.68,-0.23 0.33,-0.14 m 0,0 0.35,-0.04 m -1.13,4.75 0.17,-0.51 m -0.21,1.05 0.04,-0.54 m -0.33,1.43 -0.1,-0.54 m 0.34,1.04 -0.24,-0.5 m 0.81,-2.37 0.4,-0.32 m 5.15,11.41 0.01,0.01 m -6.25,-10.32 0.3,-0.43 m 1.59,7.45 -0.34,-0.14 m -0.3,-0.22 -0.24,-0.29 m 0.54,0.51 -0.3,-0.22 m 2.16,-0.27 -0.21,0.29 m -0.27,-7.86 -0.12,-2.01 m 0.54,9.06 -0.18,-3.12 m 0.18,3.12 -0.02,0.36 m -2.95,-6.58 0.31,-0.43 m 2.86,6.48 -0.03,0.36 m -1.98,-10.83 0.36,0.05 m 0.84,1.17 0.07,0.36 m -0.2,10.22 -0.36,0.05 m -1.39,-1.05 -0.07,-0.36 m 0.65,-2.59 -0.51,-0.21 m -0.45,-0.34 -0.36,-0.44 m 2.81,4.81 -0.32,0.13 m -2.79,-6.52 0.18,-0.51 m 2.24,-4.58 0.3,0.23 m 0.23,0.29 0.16,0.34 m -6.1,-4.79 -0.46,0.2 m 6.63,11.19 -0.49,0.21 m 0.03,-7.44 0.23,0.29 m 0.44,10.62 -0.17,0.25 m -0.53,-3.72 -0.53,0.06 m -0.08,-7.87 0.34,0.14 m 0.69,0.86 0.07,0.36 m -3.22,4.41 0.04,-0.54 m 2.16,2.64 -0.54,-0.07 m 3.07,-14.85 0.13,3.33 m -8.41,-3.41 8.28,0.08 m -8.14,3.46 -0.14,-3.54 m 1.86,22.08 0.05,-0.04 m 8.09,0.07 0.01,0.05 m -8.01,-0.22 0.11,-0.11 m -1.51,-18.49 1.13,18.78 m 1.14,-1.07 0.14,-0.15 m -0.9,0.93 0.11,-0.11 m 0.25,-0.25 0.13,-0.14 m 0.41,-0.43 0.14,-0.15 m 0,0 5.97,0.06 m -6.39,0.38 0.14,-0.14 m -0.96,0.99 0.09,-0.1 m -0.18,0.15 -0.09,0.03 m 0.13,-0.04 -0.04,0.01 m 4.59,0.03 3.6,0.04 m -8.15,-0.08 3.2,0.03 m -2.84,-0.39 0.12,-0.13 m 0,0 0.13,-0.12 m 0.13,-0.14 0.13,-0.14 m 17.11,-11.28 0.57,0.92 m -0.66,-1.66 0.31,0.5 m 0.35,1.16 1.16,8 m -0.02,0.08 0.02,-0.08 m -1.51,-9.16 0.35,1.16 m -51.01,6.92 -1.23,4.65 m 15.41,-24.01 0.47,-0.05 m -0.82,-1.12 0.61,-0.06 m -5.28,-0.11 5.02,1.34 m -5.37,-2.5 5.02,1.33 m -13.41,12.82 1.13,-5.13 m -1.48,3.97 1.12,-5.13 m -1.19,14 0.07,-8.87 m 0.28,10.04 0.07,-8.88 m -0.4,10.1 3.99,-3.55 m 0.53,-16.14 4.62,-3.4 m -4.97,2.23 4.62,-3.39 m -7.26,9.02 2.99,-4.46 m -3.35,3.3 3,-4.47 m 6.44,12.55 3.38,-0.34 m -14.01,6.26 0.35,1.17 m -1.2,24.73 -1.12,-0.05 m 0.69,4.35 -0.87,-0.04 m 1.03,-0.03 -0.88,-0.04 m 1.06,-0.18 -0.92,-0.04 m 1.08,-0.3 -0.95,-0.04 m 1.09,-0.4 -0.98,-0.05 m 1.1,-0.47 -1.02,-0.04 m 1.1,-0.51 -1.06,-0.05 m 1.09,-0.51 -1.08,-0.05 m 1.07,-0.47 -1.11,-0.05 m 1.06,-0.4 -1.13,-0.05 m 0.91,-0.51 -1.14,-0.05 m 1.27,0.27 -1.14,-0.05 m -0.13,-0.22 -0.14,-0.07 m 0,0 -0.15,0.07 m 0,0 -0.14,0.21 m 0,0 -0.14,0.35 m 0,0 -0.1,0.44 m 0,0 -0.08,0.52 m 0,0 -0.05,0.56 m 0,0 v 0.56 m 0,0 0.03,0.52 m 0,0 0.08,0.44 m 0,0 0.1,0.35 m 0,0 0.12,0.21 m 0,0 0.15,0.08 m 0,0 0.15,-0.07 m 0,0 0.14,-0.22 m 0,0 0.13,-0.34 m 0,0 0.11,-0.45 m 0,0 0.08,-0.51 m 0,0 0.04,-0.56 m 0,0 0.01,-0.56 m 0,0 -0.04,-0.52 m 0,0 -0.07,-0.45 m 0,0 -0.1,-0.34 m 0,0 -0.13,-0.22 m 52.69,3.22 -0.38,0.01 m 0.41,0.51 -0.45,0.01 m 0.38,0.43 -0.46,0.02 m 0.36,0.32 -0.47,0.02 m 0.36,0.2 -0.49,0.01 m 0.38,0.06 -0.53,0.01 m 0.51,-1.83 v 0.24 m 0,0 -0.04,0.52 m 0,0 -0.08,0.45 m 0,0 -0.11,0.34 m 0,0 -0.13,0.21 m 0,0 -0.15,0.07 m 0,0 -0.14,-0.07 m 0,0 -0.14,-0.22 m 0,0 -0.13,-0.34 m 0,0 -0.1,-0.45 m 0,0 -0.07,-0.52 m 0,0 -0.03,-0.56 m 0,0 v -0.35 m -17.5,5.69 -0.09,0.14 m 0,0 -0.08,0.23 m 0,0 -0.07,0.3 m 0,0 -0.04,0.35 m 0.02,1.09 -0.03,-0.35 m 0.09,0.64 -0.06,-0.29 m 0.14,0.52 -0.08,-0.23 m 0.26,0.43 -0.1,-0.05 m 0.2,0 -0.1,0.05 m 0.19,-0.19 -0.09,0.14 m 0.17,-0.37 -0.08,0.23 m 0.15,-0.53 -0.07,0.3 m 0.11,-0.64 -0.04,0.34 m 0.05,-1.09 -0.04,-0.34 m 0,0 -0.05,-0.3 m 0,0 -0.08,-0.23 m 0,0 -0.09,-0.15 m 0,0 -0.09,-0.05 m 0,0 0.65,0.01 m -0.69,2.87 h 0.66 m -0.76,-0.05 -0.08,-0.15 m -52.99,-0.13 0.1,-0.05 m 53.47,-1.06 -0.01,-0.37 m -0.01,0.75 0.02,-0.38 m -53.19,-0.33 -0.01,0.38 m -0.35,-1.82 0.09,0.05 m -0.38,2.4 0.08,0.23 m 0.3,-2.63 0.09,0.15 m 0.17,0.87 0.01,0.37 m -0.04,-0.71 0.03,0.34 m -0.27,1.76 0.05,-0.08 m 1.26,-2.74 h 0.13 m 51.29,1.39 -0.02,0.37 m -53.13,0.39 -0.04,-0.35 m -0.01,-0.37 0.02,-0.37 m 0.04,-0.35 0.06,-0.3 m -0.1,0.65 0.04,-0.35 m 0.59,-0.29 0.06,0.3 m -0.59,-0.31 0.08,-0.23 m 0.17,2.69 h 0.08 m -0.4,-0.72 0.05,0.29 m 0.47,-2.25 0.08,0.23 m -0.64,1.38 -0.01,-0.37 m 0.27,1.39 0.1,0.05 m 70.23,-2.34 -0.1,0.15 m 0,0 -0.08,0.22 m 0,0 -0.06,0.3 m 0,0 -0.04,0.35 m 0.02,1.09 -0.03,-0.35 m 0.09,0.64 -0.06,-0.29 m 0.13,0.52 -0.07,-0.23 m 0.16,0.38 -0.09,-0.15 m 0.19,0.2 -0.1,-0.05 m 0.2,0 -0.1,0.05 m 0.19,-0.19 -0.09,0.14 m 0.17,-0.37 -0.08,0.23 m 0.14,-0.53 -0.06,0.3 m 0.1,-0.64 -0.04,0.34 m -0.3,-2.16 -0.09,0.05 m 0.06,2.83 h 0.66 m -0.63,-2.88 h 0.02 m -52.17,-0.32 h 0.61 m 51.17,1.39 -0.02,0.37 m -51.78,1.11 0.54,0.01 m -0.86,-0.73 -0.04,-0.34 m 0,0 -0.01,-0.38 m 52.15,0.33 0.01,0.37 m -52.16,-0.7 0.02,-0.37 m 0,0 0.04,-0.34 m 0,0 0.06,-0.3 m 0,0 0.08,-0.23 m 0.38,0.01 0.07,0.22 m 0,0 0.06,0.3 m -0.32,-0.72 0.1,0.05 m -0.38,2.4 0.07,0.23 m 0.38,0 0.08,-0.22 m 0.1,-1.39 0.02,0.37 m -0.05,-0.72 0.03,0.35 m -0.1,1.39 0.06,-0.3 m 0,0 0.04,-0.35 m -0.27,1.02 0.09,-0.15 m 0.2,-1.24 -0.02,0.37 m -0.69,0.34 0.06,0.3 m 0.38,-2.4 0.09,0.15 m -0.31,2.62 0.1,0.05 m 0,0 0.1,-0.04 m 52.41,-0.69 0.01,-0.17 m -52.71,0.71 0.09,0.14 m 49.66,-2.17 0.36,-1.02 m 1.79,-3.06 0.03,-0.03 m -0.5,0.63 -0.07,0.12 m -0.75,1.26 0.09,-0.17 m -0.17,0.32 0.08,-0.15 m 0.09,-0.17 0.27,-0.5 m 0.91,3.92 -2.47,-0.02 m 0,0 0.34,-1.13 m 1.61,-3.36 -0.39,0.59 m -0.45,0.84 0.01,-0.02 m -0.08,0.18 0.07,-0.16 m -0.14,0.31 0.07,-0.15 m -0.13,0.29 0.06,-0.14 m -0.12,0.26 0.06,-0.12 m -0.11,0.24 0.05,-0.12 m -0.09,0.22 0.04,-0.1 m -0.08,0.18 0.04,-0.08 m -0.06,0.12 0.02,-0.04 m 1.3,-2.42 0.47,-0.6 m -5.47,5.18 0.4,-1.12 m 0,0 0.41,-1.03 m 0,0 0.44,-0.92 m 0,0 0.44,-0.82 m 0,0 0.46,-0.72 m 0,0 0.46,-0.6 m 0,0 0.48,-0.49 m 0,0 0.48,-0.38 m 0,0 0.48,-0.26 m 0,0 0.49,-0.14 m 0,0 0.49,-0.03 m 0,0 0.48,0.09 m -42.3,9.68 -2.76,-0.03 m -10.64,-7.61 0.38,-0.59 m 0,0 0.08,-0.12 m -0.73,1.21 0.27,-0.5 m 3.7,-0.34 -0.05,1.61 m -1.79,-3.45 0.48,-0.26 m -1.88,1.73 0.46,-0.61 m 1.9,-1.27 0.48,-0.02 m -1.91,0.8 0.47,-0.37 m 1.79,3.45 -0.05,1.46 m -4.96,0.04 -0.45,1.12 m 5.38,0.05 0.03,-1.21 m -4.32,-1.32 0.06,-0.13 m -0.23,0.47 0.02,-0.04 m -0.04,0.08 0.02,-0.04 m 0.45,-0.93 0.08,-0.15 m -0.09,0.16 0.01,-0.01 m -0.43,0.89 0.04,-0.09 m 0,0 0.05,-0.1 m -0.58,1.25 0.42,-0.92 m 0.58,-1.18 0.09,-0.17 m -0.25,0.5 0.07,-0.17 m -0.21,0.45 0.06,-0.13 m -0.18,0.37 0.06,-0.11 m 0.12,-0.26 0.08,-0.15 m -0.42,0.85 0.03,-0.06 m 4.22,-2.48 0.42,-0.54 m -0.87,1.26 0.45,-0.72 m -0.9,1.54 0.45,-0.82 m -0.88,1.74 0.43,-0.92 m -0.85,1.95 0.42,-1.03 m -0.81,2.15 0.39,-1.12 m 57.57,5.26 h -0.17 m -45.55,-1.14 h 0.81 m -29.33,6.2 -0.01,1.18 m 24.33,-0.96 -0.01,0.77 m 57.31,-0.23 v 0.07 m 0,-0.07 -1.26,-17.1 m -79.39,11.77 -0.97,4.57 m 2.5,-11.81 -0.06,0.27 m 26.88,6.06 0.01,-0.72 m 3.6,0.76 0.01,-0.72 m 0,0 -3.61,-0.04 m 44.74,1.14 0.01,-0.72 m 0.17,0.01 -0.17,-0.01 m 0.16,0.72 0.01,-0.71 m -10.19,-7.28 -0.12,0.01 m 0,0 -0.12,-0.02 m -9.2,0.61 0.13,-0.28 m 0.28,-0.38 0.15,-0.1 m -0.9,1.89 0.1,-0.42 m 0.12,-0.38 0.12,-0.33 m 0.85,-0.77 0.14,0.09 m 2.62,-0.06 0.14,0.08 m -3.99,1.37 0.12,-0.38 m -0.31,1.26 0.09,-0.46 m 1.04,-1.92 0.15,0.02 m 24.92,-2.47 -0.03,-0.65 m -2.73,0.62 -0.02,-0.44 m 2.78,1.13 v -0.66 m -2.76,0.63 v -0.66 m -22.88,2.99 0.14,-0.22 m 11.24,-3.11 -0.38,0.6 m 0.77,-1.17 -0.39,0.57 m -12.02,5.7 0.08,-0.5 m 12.71,-6.3 -0.38,0.53 m 0.77,-1.01 -0.39,0.48 m -12.01,4.21 0.14,-0.16 m -0.93,2.79 0.01,-0.04 m -0.97,4.39 0.59,-2.67 m 11.47,-5.65 -0.11,0.21 m 0,0 -0.11,0.2 m 0,0 -0.11,0.17 m 0,0 -0.11,0.16 m 0,0 -0.12,0.13 m -0.35,0.29 -0.12,0.05 m 0.24,-0.13 -0.12,0.08 m 0.24,-0.17 -0.12,0.09 m 0.23,-0.21 -0.11,0.12 m 13.1,-1.76 -0.09,10.04 m 2.85,-10.01 -0.09,10.03 m -2.67,-10.06 0.28,0.01 m -12.71,0.76 0.55,-1.17 m 14.05,-3.95 v -10.88 m -15.63,17.21 -0.11,0.03 m 15.99,-5.56 -0.12,-0.43 m 0,0 -0.13,-0.37 m 0.45,1.85 -0.09,-0.55 m -24.98,4.9 0.14,-0.03 m 24.84,-4.87 -0.11,-0.5 m 0.26,1.64 -0.06,-0.59 m 0.11,1.22 -0.05,-0.63 m -68.12,3.43 h 0.08 m -8.73,-0.19 2.76,0.03 m 0,0 0.14,0.02 m 0,0 0.15,0.09 m -2.91,-0.11 0.14,0.08 m -0.28,-0.11 0.14,0.03 m -0.29,0.01 0.15,-0.04 m -0.29,0.14 0.14,-0.1 m -0.29,0.26 0.15,-0.16 m -0.28,0.38 0.13,-0.22 m -0.26,0.49 0.13,-0.27 m -0.26,0.6 0.13,-0.33 m -0.24,0.71 0.11,-0.38 m -0.21,0.8 0.1,-0.42 m 26.72,6.75 h -0.81 m -3.72,-15.08 -0.17,-0.05 m 0.33,0.18 -0.16,-0.13 m 0.31,0.34 -0.15,-0.21 m 0.3,0.51 -0.15,-0.3 m 0.28,0.66 -0.13,-0.36 m 0.26,0.8 -0.13,-0.44 m 0.23,0.94 -0.1,-0.5 m 0.19,1.05 -0.09,-0.55 m 0.16,1.14 -0.07,-0.59 m 0.11,1.22 -0.04,-0.63 m 0.07,1.28 -0.03,-0.65 m 0.03,1.31 v -0.66 m -11.49,-0.35 -0.39,0.61 m 0.77,-1.17 -0.38,0.56 m 1.16,-1.58 -0.39,0.49 m 0.78,-0.94 -0.39,0.45 m 0.79,-0.87 -0.4,0.42 m 0.8,-0.79 -0.4,0.37 m 0.8,-0.71 -0.4,0.34 m 0.8,-0.64 -0.4,0.3 m 0.8,-0.56 -0.4,0.26 m 0.81,-0.47 -0.41,0.21 m 0.81,-0.39 -0.4,0.18 m -4.9,5.7 -0.1,0.22 m 0,0 -0.11,0.19 m 0,0 -0.11,0.18 m 0,0 -0.12,0.15 m 0,0 -0.11,0.14 m 0,0 -0.12,0.11 m 0,0 -0.11,0.1 m 0,0 -0.12,0.07 m 0,0 -0.12,0.05 m 0,0 -0.12,0.03 m 10.22,-7.09 2.13,0.02 m 0,0 0.85,0.01 m -12.06,5.82 0.55,-1.16 m -1.81,2.41 -0.12,-0.01 m 12.29,13.76 -24.32,-0.22 m 24.18,-23.27 -1.61,-0.01 m -0.38,0.65 0.07,-0.17 m 0,0 0.1,-0.19 m 0,0 0.1,-0.16 m 16.56,2.57 -5.12,2.38 m -1.11,-0.38 5.42,-2.52 m -5.36,-12.87 5.42,-2.52 m -11.29,23.1 1.71,-2.22 m 16.35,-6.76 -6.02,1.79 m 35.11,0.48 -4.29,-1.93 m -4.74,-1.94 5.76,1.33 m -5.7,-16.72 5.76,1.33 m -17.65,14.49 -1.7,0.08 m 6.6,-0.31 -1.12,0.05 m 21.39,5.76 0.61,1.43 m -0.55,-16.81 1.3,3.05 m -21.3,5.8 6.6,0.52 m 13.95,7.44 0.69,1.62 m -41.53,-6.19 6.38,-1.9 m 26.27,0.36 4.55,2.05 m -4.49,-17.44 4.55,2.05 m -30.82,-2.41 6.92,-1.15 m -6.98,16.54 6.92,-1.16 m 23.9,3.57 3.03,2.63 m -26.93,-6.2 6.99,-0.33 m 21.24,9.58 0.01,-1.55 m -0.01,1.55 -0.36,2.24 m -1.49,-0.02 0.32,-2.04 m -11.93,-8.12 -1.88,-0.44 m 5.44,1.26 -2.12,-0.49 m -8.41,-1.17 -1.14,-0.08 m 6.23,0.48 -1.37,-0.1 m 13.96,5.78 -2.86,-2.49 m -26.16,-2.76 -2.93,0.49 m 6.53,-1.09 -2.25,0.37 m -16.47,-10.88 -4.1,2.98 m 15.9,-7.4 -6.38,1.9 m 230.44,32.16 -0.02,0.15 m -0.12,0.75 0.47,0.04 m -0.47,-0.04 v -0.02 m 0,0 0.01,-0.05 m 2.67,-15.31 0.23,-0.29 m -0.33,0.8 0.1,-0.51 m -2.13,12.07 0.49,0.04 m 0.36,-1.62 0.04,-0.23 m -0.54,3.26 0.02,-0.16 m -0.89,1.79 0.09,-0.52 m 0,0 0.55,0.05 m -0.64,0.47 0.51,0.04 m -0.52,0.05 0.01,-0.09 m -0.02,0.16 0.01,-0.07 m 19.79,-11.48 5.03,-0.15 m 15.31,0.34 4.13,0.33 m -19.44,-0.67 5.14,-0.02 m 0,0 5.14,0.11 m -18.1,0.23 2.79,-0.17 m 15.31,-0.06 5.03,0.25 m -37.35,-3.83 v 0.4 m 0,-0.4 0.11,-0.14 m 55.41,-0.66 -0.01,0.08 m 0.81,-0.13 -0.03,-0.09 m 0.04,0.19 -0.01,-0.1 m -0.01,0.19 0.02,-0.09 m -0.07,0.18 0.05,-0.09 m -0.12,0.16 0.07,-0.07 m -0.16,0.12 0.09,-0.05 m -0.19,0.08 0.1,-0.03 m -0.2,0.03 h 0.1 m -0.21,-0.01 0.11,0.01 m -0.2,-0.06 0.09,0.05 m -0.17,-0.11 0.08,0.06 m -0.14,-0.14 0.06,0.08 m -0.1,-0.17 0.04,0.09 m -0.02,-0.28 -0.02,0.1 m 0.06,-0.18 -0.04,0.08 m 0.11,-0.15 -0.07,0.07 m 0.16,-0.13 -0.09,0.06 m 0.19,-0.09 -0.1,0.03 m 0.21,-0.03 h -0.11 m 0.21,0.02 -0.1,-0.02 m 0.2,0.06 -0.1,-0.04 m 0.18,0.1 -0.08,-0.06 m 0.14,0.14 -0.06,-0.08 m -0.24,-4.39 h -0.05 m 0.05,-0.03 -0.08,0.01 m 0.08,-0.01 h -0.09 m 0.08,0.07 0.01,-0.04 m 0,-0.03 v 0.03 m 0,0.04 v -0.04 m 0,0.05 v -0.01 m 2.39,2.52 0.74,1.9 m -1.81,-3.06 1.07,1.16 m -3.07,-3.06 0.53,0.41 m 0.41,8.24 0.47,0.06 m 1,-0.24 1.29,-1.35 m -2.23,-21.16 0.01,-0.1 m -0.04,0.19 0.03,-0.09 m -0.1,0.17 0.07,-0.08 m -0.16,0.15 0.09,-0.07 m -0.2,0.12 0.11,-0.05 m -0.23,0.08 0.12,-0.03 m -0.24,0.04 0.12,-0.01 m -0.24,-0.01 0.12,0.02 m -0.23,-0.07 0.11,0.05 m -0.19,-0.11 0.08,0.06 m -0.14,-0.14 0.06,0.08 m -0.09,-0.17 0.03,0.09 m -0.03,-0.19 v 0.1 m 0.03,-0.19 -0.03,0.09 m 0.1,-0.18 -0.07,0.09 m 0.16,-0.16 -0.09,0.07 m 0.2,-0.12 -0.11,0.05 m 0.23,-0.08 -0.12,0.03 m 0.24,-0.03 h -0.12 m 0.24,0.02 -0.12,-0.02 m 0.23,0.06 -0.11,-0.04 m 0.2,0.11 -0.09,-0.07 m 0.15,0.15 -0.06,-0.08 m 0.09,0.17 -0.03,-0.09 m 2.63,-3.26 -0.41,-0.09 m 0.36,0.12 -0.34,-0.07 m 0.23,0.18 -0.15,-0.03 m 0.2,-0.03 -0.25,-0.05 m 0.14,0.2 -0.04,-0.01 m 0.04,0.01 0.06,-0.09 m 0,0 0.05,-0.06 m 0,0 0.06,-0.05 m 0,0 0.05,-0.03 m 0,0 0.05,-0.01 m 0,0 0.05,0.01 m 0,0 0.04,0.02 m 0,0 0.04,0.05 m 0,0 0.03,0.07 m 0.02,0.08 -0.02,-0.08 m 0.29,1.2 -0.27,-1.12 m 0.29,1.21 -0.02,-0.09 m 0.03,0.19 -0.01,-0.1 m 0.01,0.21 v -0.11 m 0,0.22 v -0.11 m -0.01,0.24 0.01,-0.13 m -0.01,0.14 v -0.01 m -0.76,-1.62 0.02,-0.03 m -2.86,-5.53 -1.53,0.04 m 0,0 0.51,-0.97 m 4.68,8.25 0.08,2.15 m -0.08,-2.15 0.68,7.19 m 0.03,1.53 -0.03,-1.53 m -3.56,4.23 2.56,-1.18 m -4.86,-16.39 -0.01,-1.13 m 0.02,2.19 -0.01,-1.06 m 2.27,0.23 -0.23,-2.41 m -0.36,2.15 -0.16,-1.14 m 0.59,2.17 1.63,2.14 m -3.73,-2.08 -0.01,2.19 m 2.27,-3.02 -0.2,0.67 m -1.57,-3 1.54,-0.08 m -0.3,13.89 0.56,5.86 m -0.26,-19.75 -0.52,1.01 m -1.5,5.8 0.04,1.73 m 2.08,11.15 0.16,0.06 m -2.46,-0.93 1.27,0.48 m 0.63,-5.41 2.55,-1.22 m 0.42,-0.95 -0.42,0.95 m 0.97,-2.19 -0.55,1.24 m 0.15,6.85 1.03,-1.52 m -2.91,22.86 1.07,3.31 m -1.91,-5.91 0.25,0.77 m -0.55,-0.76 1.66,5.99 m 0,0 -0.62,2.63 m 1.22,-2.5 0.03,0.23 m 0,0 0.04,0.24 m 0,0 0.03,0.24 m 0,0 0.02,0.24 m 0,0 0.02,0.24 m 0,0 0.01,0.23 m 0,0 v 0.23 m 0,0 v 0.22 m 0,0 -0.01,0.21 m -0.21,1.07 0.04,-0.14 m -0.08,0.25 0.04,-0.11 m -0.09,0.19 0.05,-0.08 m -0.11,0.12 0.06,-0.04 m -0.12,0.06 0.06,-0.02 m 0.17,-3.6 0.05,0.22 m -0.05,-0.22 -0.88,-3.33 m 0.88,3.33 -0.55,0.09 m 0.19,2.1 -0.01,0.2 m 0.02,-0.42 -0.01,0.22 m 0,-0.45 0.01,0.23 m -0.02,-0.47 0.01,0.24 m -0.02,-0.48 0.01,0.24 m -0.04,-0.48 0.03,0.24 m -0.05,-0.48 0.02,0.24 m -0.06,-0.48 0.04,0.24 m -0.08,-0.47 0.04,0.23 m -0.08,-0.45 0.04,0.22 m -0.49,3.19 0.03,0.06 m 0,0 0.06,0.08 m 0,0 0.07,0.05 m 0,0 0.06,0.02 m 0,0 0.06,-0.02 m 0,0 0.05,-0.04 m 0,0 0.05,-0.08 m 0,0 0.05,-0.11 m 0,0 0.04,-0.13 m 0.68,-0.65 -0.13,0.55 m -0.55,0.1 0.13,-0.56 m 0.42,0.46 -0.55,0.1 m 0.15,-0.74 -0.02,0.18 m 0.55,-0.09 -0.55,0.09 m 0.57,-0.27 -0.02,0.18 m -0.52,-0.29 -0.01,0.2 m 0.57,-0.29 -0.02,0.2 m -59.46,-28.13 v 0.02 m 0.89,-16.11 -0.61,-0.03 m 0.33,10.43 0.55,0.03 m 0.04,-2.53 -0.03,0.47 m 0.07,-0.9 -0.04,0.43 m 0.07,-0.78 -0.03,0.35 m 0.07,-0.6 -0.04,0.25 m 0.07,-0.39 -0.03,0.14 m 0.06,-0.15 -0.03,0.01 m 0.05,0.11 -0.02,-0.12 m 0.04,0.36 -0.02,-0.24 m 0.02,0.57 v -0.33 m -0.01,0.75 0.01,-0.42 m -0.02,0.89 0.01,-0.47 m -0.04,0.95 0.03,-0.48 m -0.06,0.96 0.03,-0.48 m -0.06,0.9 0.03,-0.42 m -0.07,0.77 0.04,-0.35 m -0.08,0.61 0.04,-0.26 m -0.07,0.39 0.03,-0.13 m -0.06,0.14 0.03,-0.01 m -0.05,-0.1 0.02,0.11 m -0.03,-0.35 0.01,0.24 m -0.02,-0.58 0.01,0.34 m 0,-0.75 -0.01,0.41 m 0.03,-0.88 -0.02,0.47 m 0.04,-0.96 -0.02,0.49 m -1.24,2.23 0.58,-6 m -0.49,11.02 -0.29,14.33 m -0.52,-19.36 1.09,-11.11 m -1.45,36.73 0.4,0.01 m -0.4,-0.01 -0.01,-0.02 m -0.01,-0.06 v -0.1 m -0.05,-3.02 v 0.4 m 0.01,-2.04 v 0.41 m 0.02,-1.51 0.4,-19.68 m -0.4,19.68 h 0.71 m 0,0 v 0.34 m 0,0 -0.01,0.37 m 0,0 v 0.4 m 0,0 -0.01,0.4 m 0,0 v 0.41 m 0,0 v 0.42 m 0,0 v 0.26 m -0.68,2.83 -0.02,-0.97 m 0,0 h 0.57 m -0.55,0.97 0.47,0.01 m -0.47,0.17 v -0.18 m 0.01,0.33 -0.01,-0.15 m 58.3,-17.98 0.61,5.03 m 0,0 -0.06,-1.02 m -0.55,-4.01 -0.07,-1.02 m 0,0 0.62,5.03 m 0,0 -0.07,-0.98 m -0.55,-4.05 -0.06,-0.98 m 0,0 0.61,5.03 m 0,0 -0.05,-0.89 m -0.56,-4.14 -0.05,-0.89 m 0,0 0.61,5.03 m 0,0 -0.07,-1.03 m -0.54,-4 -0.07,-1.03 m 0,0 0.61,5.03 m -0.61,-5.03 -0.06,-0.97 m 0,0 -0.04,-0.68 m 1.24,19.8 0.03,0.37 m 0,0 0.03,0.37 m 0,0 0.03,0.39 m 0,0 0.03,0.39 m 0,0 0.04,0.39 m 0,0 0.03,0.39 m 0,0 0.04,0.38 m 0,0 0.03,0.37 m 0,0 0.04,0.35 m 0.22,1.86 -0.03,-0.24 m 0.06,0.44 -0.03,-0.2 m 0.05,0.35 -0.02,-0.15 m 0.04,0.25 -0.02,-0.1 m 0.04,0.15 -0.02,-0.05 m 0.03,0.04 -0.01,0.01 m 0.01,-0.06 v 0.05 m 0.01,-0.16 -0.01,0.11 m 0,-0.27 0.01,0.16 m -0.01,-0.37 v 0.21 m -0.02,-0.46 0.02,0.25 m -0.03,-0.54 0.01,0.29 m -0.62,-5.32 0.02,0.35 m 0.59,4.68 -0.1,-1.51 m -3.74,-27.1 -0.42,-1.15 m 3.65,24.73 -0.87,-13.88 m 0.87,13.88 -0.71,0.07 m 0.1,-14.49 -0.61,-5.03 m 0.62,20.99 0.03,0.39 m -0.09,-1.15 0.03,0.37 m -0.06,-0.74 0.03,0.37 m -0.05,-0.71 0.02,0.34 m 0.61,5.76 -0.02,-0.05 m 0,0 -0.02,-0.1 m 0,0 -0.03,-0.15 m 0,0 -0.02,-0.2 m 0,0 -0.03,-0.24 m 0.59,-1.04 0.12,0.98 m -0.71,0.06 -0.12,-0.98 m 0.83,0.92 -0.71,0.06 m -3.46,-33.55 0.81,2.22 m 0.84,5.93 0.08,0.58 m -0.92,-6.51 0.13,0.94 m 0.79,5.57 v 0.04 m 0.71,-0.1 -0.71,0.1 m 0.71,-0.1 -0.03,-0.24 m 1.64,24.08 -0.71,0.06 m 0.67,-0.37 0.04,0.31 m -0.78,-0.58 0.03,0.33 m 0.68,-0.39 0.03,0.33 m -52.4,0.96 -2.46,-0.02 m 47.51,1.28 0.94,2.14 m -20.91,-10.34 -6.05,-0.04 m 0,0 -5.83,0.63 m -9.5,3.04 -3.01,2.21 m -1.54,1.94 -0.01,-0.34 m 8.83,-5.6 -4.27,1.79 m 41.35,4.57 2.38,0.03 m -2.39,-0.4 0.01,0.37 m 1.63,-0.83 -2.46,-0.02 m -6.61,-6.11 4.72,2.04 m -11.41,-2.57 -5.84,-0.71 m 15.35,3.89 -4.28,-1.85 m -37,5.74 -0.98,2.14 m 8.34,-8.9 5.77,-1.38 m -10.48,3.35 4.71,-1.97 m -1.08,-43.63 -1.86,14.88 m 28.26,27.5 5.78,1.47 m -12.22,-2.25 6.44,0.78 m -33.36,5.66 3.33,-2.44 m 41.66,3.15 -3.03,-2.25 m -28.15,-4.25 6.44,-0.69 m 23.61,4.33 3.35,2.49 m -44.99,0.07 -0.69,1.1 m -2.46,-0.02 0.93,-1.49 m 0.68,2.35 v -0.35 m -2.38,0.33 2.38,0.02 m 48.27,0.02 -0.74,-0.43 m -1,-1.6 1,1.6 m -2.46,-0.02 -0.76,-1.21 m 0.76,1.21 0.82,0.48 m -26.32,-8.88 6.67,0.04 m 0.4,-38.11 -0.14,0.12 m 0.27,-0.23 -0.13,0.11 m -0.14,0.12 -0.14,0.13 m -7.54,17.79 -0.05,0.03 m 8.13,-18.28 -0.13,0.1 m 0.25,-0.19 -0.12,0.09 m -8.13,18.49 v -0.21 m 1.1,-18.13 0.13,0.12 m -0.15,16.79 -0.14,0.15 m -0.26,0.28 -0.12,0.14 m 0.38,-0.42 -0.14,0.14 m 0.17,-17.31 0.13,0.11 m -0.3,17.2 -0.12,0.14 m 0.54,-0.57 -0.14,0.14 m -0.24,-17.13 0.13,0.11 m -0.35,-0.28 0.1,0.08 m 7.64,-0.01 -0.11,0.08 m -7.69,17.72 -0.11,0.13 m 0.07,-18.07 0.1,0.07 m -0.17,18 -0.1,0.12 m 0.37,-18.04 0.12,0.09 m -0.49,17.95 -0.1,0.11 m 0.18,-18.36 0.09,0.06 m -0.27,18.3 -0.08,0.11 m 0.11,-18.55 0.07,0.03 m 0,0 0.08,0.05 m -0.26,18.47 -0.07,0.1 m 0.12,-18.68 0.06,0.03 m -0.1,-0.04 0.04,0.01 m 1.01,0.75 0.14,0.13 m 7.09,-0.64 -0.1,0.07 m 0.19,-0.13 -0.09,0.06 m 0.17,-0.1 -0.08,0.04 m 0.15,-0.08 -0.07,0.04 m 0.12,-0.06 -0.05,0.02 m 0.1,-0.02 h -0.05 m -2.92,4.7 -0.14,-0.34 m 0,0 -0.22,-0.29 m 0,0 -0.3,-0.22 m 0,0 -0.34,-0.15 m 0,0 -0.38,-0.05 m 1.14,11.15 0.15,-0.33 m 0.14,-9.41 -0.05,-0.36 m -4.61,12.62 0.15,-16.52 m 0,0 6.22,0.06 m 0,0 -0.16,16.51 m -4.47,-2.93 0.15,0.34 m 0.22,0.29 0.3,0.22 m 0.71,0.2 0.37,-0.05 m 3.91,3.47 v -0.15 m -4.16,-11.72 -0.56,0.07 m 0,0 -0.52,0.2 m -0.45,0.33 -0.35,0.43 m 0,0 -0.22,0.5 m 0,0 -0.08,0.54 m 0,0 0.07,0.54 m 0,0 0.21,0.51 m 0,0 0.34,0.43 m 0,0 0.45,0.34 m 2.18,-3.6 -0.51,-0.21 m -1.67,3.81 0.51,0.21 m 2.73,-1.64 v -0.35 m -1.57,-2.03 -0.56,-0.08 m -0.6,4.1 0.56,0.08 m 0,0 0.56,-0.07 m 0,0 0.52,-0.2 m 0,0 0.45,-0.33 m 0,0 0.35,-0.43 m 0,0 0.22,-0.5 m 0,0 0.07,-0.54 m -4.31,0.31 v -0.35 m 3.54,1.95 -0.03,3.05 m 0.09,-8.88 -0.03,2.34 m -1.4,-3.74 -0.37,0.04 m -0.88,0.64 -0.15,0.34 m 0.38,-0.62 -0.23,0.28 m 0.88,-0.64 -0.35,0.14 m 0,0 -0.3,0.22 m 1.74,-0.21 -0.35,-0.14 m 0,0 -0.37,-0.05 m 1.01,0.42 -0.29,-0.23 m 1.36,4.59 -0.21,-0.51 m 0.27,1.05 -0.06,-0.54 m -0.02,1.43 0.08,-0.54 m -0.3,1.04 0.22,-0.5 m -6.43,8.6 -0.03,0.01 m 2.23,-9.19 0.07,0.54 m 0,0 0.21,0.51 m 0,0 0.34,0.43 m 2.98,-5.88 v 0.17 m -0.05,-0.36 -0.14,-0.33 m 0.19,0.69 -0.05,-0.36 m -1.12,10.57 0.35,-0.13 m 0.3,-0.22 0.23,-0.29 m -0.53,0.51 0.3,-0.22 m -2.25,-0.31 0.22,0.29 m -0.35,-7.47 0.02,-2.39 m -0.08,8.87 0.03,-3.1 m 3.37,-2.88 -0.34,-0.43 m -3.06,6.41 0.04,0.36 m 1.49,-10.79 -0.37,0.05 m -1.03,1.15 -0.05,0.36 m 0.97,10.23 0.37,0.05 m 1.4,-1.02 0.05,-0.36 m -0.81,-2.61 0.52,-0.2 m 0.45,-0.33 0.34,-0.43 m -2.66,4.75 0.34,0.15 m -0.24,-11.61 -0.3,0.22 m -0.23,0.29 -0.14,0.33 m 0.28,6.61 0.52,0.21 m -0.43,-7.44 -0.23,0.29 m 0.66,7.15 0.56,0.08 m -0.34,-7.87 -0.35,0.13 m -0.67,0.84 -0.06,0.36 m 2.69,-0.49 -0.23,-0.29 m -1.04,7.32 0.56,-0.07 m 3.85,-14.84 -8.62,-0.08 m 8.34,22.14 -0.03,-0.04 m -8.42,-0.08 -0.02,0.04 m 8.37,-0.06 -0.07,-0.11 m -0.67,-0.8 -0.14,-0.15 m 0.81,0.95 -0.09,-0.12 m -0.21,-0.25 -0.12,-0.14 m -0.39,-0.44 -0.14,-0.15 m 0,0 -6.21,-0.05 m 6.62,0.5 -0.13,-0.15 m 0.81,1.01 -0.07,-0.1 m 0.13,0.15 0.04,0.03 m -0.07,-0.04 0.03,0.01 m -4.75,-0.05 -3.75,-0.04 m 8.47,0.08 -3.33,-0.03 m 3.07,-0.34 -0.1,-0.12 m 0,0 -0.11,-0.13 m -0.12,-0.14 -0.12,-0.14 m 22.51,3.98 0.42,-0.01 m -0.58,-1.82 -0.02,-0.49 m 0.03,0.97 -0.01,-0.48 m 0.01,0.93 v -0.45 m 0,0.83 v -0.38 m -0.04,0.85 0.02,-0.18 m -0.04,0.24 0.02,-0.06 m -0.05,-0.01 0.03,0.07 m -0.07,-0.27 0.04,0.2 m -0.07,-0.5 0.03,0.3 m -0.05,-0.69 0.02,0.39 m -0.05,-0.84 0.03,0.45 m -0.05,-0.93 0.02,0.48 m -0.03,-0.96 0.01,0.48 m -0.01,-0.93 v 0.45 m 0.01,-0.83 -0.01,0.38 m 0.02,-0.67 -0.01,0.29 m 0.03,-0.47 -0.02,0.18 m 0.05,-0.24 -0.03,0.06 m 0.06,0.01 -0.03,-0.07 m 0.06,0.26 -0.03,-0.19 m 0.09,0.88 -0.03,-0.39 m 0.05,0.84 -0.02,-0.45 m -50.75,2 -2.57,4.82 m 0,0 -0.54,2.61 m 3.63,-28.24 -2.57,5.62 m 6.85,-8.54 -4.3,4.08 m 4.33,-5.24 -4.31,4.08 m -2.59,6.78 -0.68,7.99 m 10.66,-19.26 -3.11,1.57 m 2.97,-2.65 -2.94,1.49 m -7.92,31.16 -0.02,1.16 m 53.87,-21.27 -2.4,-5.17 m 2.42,4.01 -2.4,-5.17 m 2.73,15.21 -0.35,-8.88 m -46.42,9.51 -0.03,0.02 m 39.88,-19.23 -1.29,-0.79 m 1.31,-0.37 -1.17,-0.72 m 5.32,6.41 -4.17,-4.53 m 4.19,3.37 -4.17,-4.53 m 6.92,18.58 -0.02,1.16 m 3.13,29.1 h 0.07 m 0.8,-0.09 0.93,-0.03 m -1.8,0.05 h 0.06 m 0.78,-0.24 0.95,-0.02 m -1.79,0.04 h 0.04 m 0.76,-0.36 0.98,-0.03 m -1.79,0.05 h 0.02 m 0.74,-0.47 1.02,-0.02 m -1.07,-0.5 1.06,-0.02 m -1.11,-0.53 1.09,-0.03 m -1.14,-0.53 1.13,-0.03 m -1.17,-0.49 1.16,-0.03 m -1.19,-0.42 1.18,-0.02 m -1.2,-0.53 1.18,-0.03 m -1.17,0.24 1.18,-0.03 m -0.01,-0.21 v -0.08 m 0.11,4.32 v -0.08 m 0,0 -0.01,-0.21 m 0,0 -0.01,-0.35 m 0,0 -0.01,-0.44 m 0,0 -0.01,-0.52 m 0,0 -0.02,-0.56 m 0,0 -0.01,-0.56 m -0.01,-0.52 -0.01,-0.44 m 0,0 -0.01,-0.35 m 0,0 -0.01,-0.21 m -61.56,9.87 v 0.05 m 0,-0.2 v 0.15 m 0,-0.37 v 0.22 m 0,-0.52 v 0.3 m 0,-0.65 v 0.35 m 0.01,-1.09 v -0.35 m 0,0 v -0.3 m 0,0 v -0.22 m 0,0 v -0.15 m 0,-0.05 v 0.02 m 1.17,-7.83 -0.47,-0.02 m 0.47,0.1 -0.47,-0.02 m 0.46,0.23 -0.47,-0.02 m 0.47,0.36 -0.49,-0.02 m 0.48,0.47 -0.5,-0.02 m 0.5,0.54 -0.52,-0.02 m 0.52,0.58 -0.54,-0.02 m 0.53,0.58 -0.56,-0.03 m 0.56,0.55 -0.58,-0.03 m 0.59,0.48 -0.61,-0.03 m 0.61,0.37 -0.63,-0.03 m 0.63,0.25 -0.64,-0.03 m 0.64,0.1 -0.64,-0.03 m 0.19,-4.31 v 0.08 m 0,0 -0.01,0.21 m 0,0 -0.02,0.34 m 0,0 -0.02,0.45 m 0,0 -0.02,0.52 m 0,0 -0.02,0.56 m 0,0 -0.03,0.55 m 0,0 -0.02,0.52 m 0,0 -0.02,0.45 m 0,0 -0.02,0.34 m 0,0 -0.01,0.22 m 0,0 v 0.07 m -0.15,6.4 h -0.37 m 0.98,0 h -0.02 m -0.59,-0.05 h -0.37 m 1,0 h -0.04 m -0.56,-0.14 -0.4,-0.01 m 1.04,0.01 h -0.05 m -0.55,-0.23 h -0.44 m 1.08,0 h -0.05 m -0.54,-0.3 h -0.49 m 0.55,-0.34 -0.55,-0.01 m 0.68,-0.74 h -0.67 m 0.73,-0.34 -0.73,-0.01 m 0.78,-0.29 -0.78,-0.01 m 0.82,-0.22 h -0.82 m 0.85,-0.14 -0.85,-0.01 m 0.85,-0.04 -0.85,-0.01 m 1.07,2.46 v 0.07 m 3.97,-5.92 h 0.05 m -0.05,0.07 h 0.05 m 50.94,0.66 h -0.28 m 0.26,-0.08 -0.26,0.01 m 0.19,-0.22 h -0.19 m 0.09,-0.34 h -0.08 m 4.53,6.91 h -0.26 m -57.96,-11.41 h -0.13 m -0.72,10.68 -0.16,-0.01 m 4.61,0.06 -0.69,-0.01 m 0.09,-2.87 h -0.06 m 50.97,3.51 -0.71,-0.01 m 0.74,-2.87 h -0.29 m 3.86,-7.76 -0.47,-0.01 m 0.75,4.32 v -0.07 m 0,0 v -0.22 m 0,0 -0.01,-0.34 m 0.06,7 h -0.16 m -58.67,-3.6 v 0.01 m -0.01,2.15 v 0.29 m 50.86,3.12 h -0.07 m -46.9,-0.44 -2.87,-0.02 m 59.56,6.300001 -0.01,1.44 m -1.42,-1.45 -0.02,1.43 m -59.6,-1.99 -0.01,0.83 m -1.43,-0.85 v 0.82 m 61.04,1.19 1.44,0.02 m -9.78,-7.280001 0.01,-0.72 m -42.81,0.32 0.01,-0.72 m -0.31,0.72 0.01,-0.72 m 43.16,1.12 0.01,-0.72 m -46.98,0.28 0.02,-2.21 m -1.77,-7.84 h -0.07 m 55.84,-4.53 -0.88,-0.01 m -58.94,20.280001 1.44,0.02 m 59.62,0.56 1.43,0.01 m -12.87,-21.060001 4.12,2.47 m 1.34,-0.36 -4.37,-2.62 m 4.52,-12.77 -4.38,-2.61 m 7.7,23.27 -0.69,-2.23 m -13.59,-7.05 5.35,1.9 m -36.53,-0.19 5.39,-1.85 m 5.84,-1.83 -6.61,1.21 m 6.76,-16.6 -6.61,1.21 m 18.48,14.83 1.71,0.11 m -6.66,-0.44 1.13,0.08 m -24.93,5.33 -1.33,1.41 m 25.13,-7.53 -7.07,0.39 m -18.06,7.14 -1.5,1.6 m 45.95,-5.38 -5.67,-2.01 m -27.33,-0.14 -5.7,1.95 m 5.85,-17.34 -5.71,1.96 m 44.44,19.84 -1.51,-1.64 m -9.89,-20.02 -6.59,-1.28 m 6.44,16.67 -6.58,-1.28 m -26.45,3.09 -4.42,2.57 m 4.56,-17.95 -4.41,2.56 m 50.12,18.68 -1.27,-1.4 m -18.13,-7.55 -7.07,-0.46 m -25.14,9.33 1.68,-1.78 m -3.17,1.58 -0.73,2.23 m 50.88,-3.37 1.46,1.6 m -51.48,-15.85 -1.03,3.12 m 4.07,10.69 0.99,-1.06 m 44.82,0.24 1.17,1.26 m -32.36,-6.51 2.16,-0.4 m -6.23,1.14 2.42,-0.44 m 9.26,-1 1.23,-0.07 m -6.68,0.37 1.47,-0.08 m -17.26,5.49 4.17,-2.42 m 28.39,-2.25 2.79,0.54 m -6.22,-1.21 2.15,0.42 m 4.99,-15.22 5.66,2.02 m 8.13,8.78 -0.97,-3.13 m 198.44,27.2 6.29,-3.28 m -1.59,-2.91 -6.13,3.2 m -18.26,10.950001 6.69,-2.34 m 0,0 6.57,-2.66 m -1.28,-3.050001 -6.41,2.59 m 0,0 -6.53,2.280001 m -19.66,8.24 6.95,-1.36 m 0,0 6.88,-1.69 m -0.79,-3.22 -6.72,1.66 m 0,0 -6.79,1.32 m -20.67,5.34 7.08,-0.35 m 0,0 7.05,-0.68 m -0.3,-3.31 -6.88,0.68 m 0,0 -6.92,0.34 m -53.02,0.79 52.99,2.53 m 0.03,-3.32 -52.98,-2.52 m -53.01,-2.16 -53.02,-1.78 m -0.03,3.31 53.02,1.79 m -89.01,-6.06 -17.01,-0.46 m -106.12,1.58 53.05,0.69 m 0.03,-3.320001 -53.05,-0.68 m 0,0 -53.05,-0.31 m -0.02,3.310001 53.04,0.31 m -144.58,-3.260001 -14.54,0.12 m 0,0 -53.04,0.790001 m -0.02,3.31 53.04,-0.79 m -106.06,-1.36 -53.029998,1.52 m -0.02,3.32 53.029998,-1.53 M 18.343382,90.019969 l -6.22,-3.39 m 1.64,-2.88 6.07,3.31 m 11.41,8.83 -6.52,-2.78 m 7.7,-0.32 6.48,2.41 m -12.84,-5.12 6.36,2.71 m 5.46,5.56 -6.64,-2.46 m 20.93,3.18 6.76,1.450001 m -13.44,-3.230001 6.68,1.78 m -0.69,3.240001 -6.85,-1.82 m 13.78,3.3 -6.93,-1.48 m 21.14,0.14 6.9,0.47 m -13.77,-1.27 6.87,0.8 m -7.22,2.5 -6.47,-1.07 m 13.5,1.88 -7.03,-0.81 m 14.1,1.29 -7.07,-0.48 m 182.279998,-34.250001 -0.01,-0.04 m 12.93,-18 -0.02,-0.05 m -13.68,34.25 0.08,-0.13 m 18.07,0.29 0.08,-0.12 m 250.1,3.91 0.04,-0.21 m 2.22,-32.73 0.02,-0.17 m -0.53,3.85 v -0.02 m 0.09,5 v -0.03 m 3.74,-23.98 v -0.05 m 50.2,17.21 v -0.13 m -55.37,32.34 v -0.05 m 0.12,-0.66 v -0.02 m 0.82,-7.78 h 0.02 m -1.21,9.83 0.03,-0.09 m -463.839998,9.900001 0.29,0.05" />
</svg>
